<?xml version="1.0" encoding="UTF-8" standalone="no"?>
<!-- Created with Inkscape (http://www.inkscape.org/) -->

<svg
   version="1.1"
   id="svg1"
   width="959.17529"
   height="787.28082"
   viewBox="0 0 959.17529 787.28082"
   xmlns="http://www.w3.org/2000/svg"
   xmlns:svg="http://www.w3.org/2000/svg">
  <defs
     id="defs1" />
  <g
     id="g1"
     transform="translate(1255.2189,339.9008)">
    <g
       id="g2"
       transform="translate(-1255.0436,-339.61996)">
      <path
         style="fill:#cb0202"
         d="M 442.5,787 H 442 v -0.5 -0.5 h 0.5 0.5 v 0.5 0.5 z m -31,-5 H 411 v -0.5 -0.5 h 0.5 0.5 v 0.5 0.5 z m 151,0 H 562 v -0.5 -0.5 h 0.5 0.5 v 0.5 0.5 z m -157,-1 H 405 v -0.5 -0.5 h 0.5 0.5 v 0.5 0.5 z m -6,-1 H 399 v -0.5 -0.5 h 0.5 0.5 v 0.5 0.5 z m -6,-1 H 393 v -0.5 -0.5 h 0.5 0.5 v 0.5 0.5 z m -6,-1 H 387 v -0.5 -0.5 h 0.5 0.5 v 0.5 0.5 z m 162.91667,-0.0789 -1.91667,-0.0789 1.3125,-0.52522 1.3125,-0.52522 0.60417,0.60416 L 552.33333,778 Z M 375.5,776 H 375 v -0.5 -0.5 h 0.5 0.5 v 0.5 0.5 z m 57.5,0 h -1.33333 l 0.66666,-0.66667 0.66667,-0.66666 0.66667,0.66666 0.66666,0.66667 z m 135.5,0 H 568 v -0.5 -0.5 h 0.5 0.5 v 0.5 0.5 z m -142,-1 H 426 v -0.5 -0.5 h 0.5 0.5 v 0.5 0.5 z m -6,-1 H 420 v -0.5 -0.5 h 0.5 0.5 v 0.5 0.5 z m -6,-1 H 414 v -0.5 -0.5 h 0.5 0.5 v 0.5 0.5 z m -64,-1 H 350 v -0.5 -0.5 h 0.5 0.5 v 0.5 0.5 z m 58,0 H 408 v -0.5 -0.5 h 0.5 0.5 v 0.5 0.5 z m 131,0 H 539 v -0.5 -0.5 h 0.5 0.5 v 0.5 0.5 z m -195,-1 H 344 v -0.5 -0.5 h 0.5 0.5 v 0.5 0.5 z m -5,-1 H 339 v -0.5 -0.5 h 0.5 0.5 v 0.5 0.5 z m 104,0 H 443 v -0.5 -0.5 h 0.5 0.5 v 0.5 0.5 z m 98,0 H 541 v -0.5 -0.5 h 0.5 0.5 v 0.5 0.5 z m 14,-3 H 555 v -0.5 -0.5 h 0.5 0.5 v 0.5 0.5 z m -190,-2 H 365 v -0.5 -0.5 h 0.5 0.5 v 0.5 0.5 z m -12,-2 H 353 v -0.5 -0.5 h 0.5 0.5 v 0.5 0.5 z m -6,-1 H 347 v -0.5 -0.5 h 0.5 0.5 v 0.5 0.5 z m -6,-1 H 341 v -0.5 -0.5 h 0.5 0.5 v 0.5 0.5 z m 214,-1 H 555 v -0.5 -0.5 h 0.5 0.5 v 0.5 0.5 z m -153,-1 H 402 v -0.5 -0.5 h 0.5 0.5 v 0.5 0.5 z m 1,-6 H 403 v -0.5 -0.5 h 0.5 0.5 v 0.5 0.5 z m 37,0 H 440 v -0.5 -0.5 h 0.5 0.5 v 0.5 0.5 z m 3,0 H 443 v -0.5 -0.5 h 0.5 0.5 v 0.5 0.5 z m 124,0 H 567 v -0.5 -0.5 h 0.5 0.5 v 0.5 0.5 z m -133,-1 H 434 v -0.5 -0.5 h 0.5 0.5 v 0.5 0.5 z m -6,-1 H 428 v -0.5 -0.5 h 0.5 0.5 v 0.5 0.5 z m 68,0 H 496 v -0.5 -0.5 h 0.5 0.5 v 0.5 0.5 z m 10,0 H 506 v -0.5 -0.5 h 0.5 0.5 v 0.5 0.5 z m 171,0 H 677 v -0.5 -0.5 h 0.5 0.5 v 0.5 0.5 z m -255,-1 H 422 v -0.5 -0.5 h 0.5 0.5 v 0.5 0.5 z m 89,0 H 511 v -0.5 -0.5 h 0.5 0.5 v 0.5 0.5 z m 168,0 H 679 v -0.5 -0.5 h 0.5 0.5 v 0.5 0.5 z m -392,-1 H 287 v -0.5 -0.5 h 0.5 0.5 v 0.5 0.5 z m 129,0 H 416 v -0.5 -0.5 h 0.5 0.5 v 0.5 0.5 z m 100,0 H 516 v -0.5 -0.5 h 0.5 0.5 v 0.5 0.5 z m -106,-1 H 410 v -0.5 -0.5 h 0.5 0.5 v 0.5 0.5 z m 156,0 H 566 v -0.5 -0.5 h 0.5 0.5 v 0.5 0.5 z M 680.66667,746.66667 680,747.33333 V 746 744.66667 l 0.66667,0.66666 L 681.33333,746 Z M 391.5,746 H 391 v -0.5 -0.5 h 0.5 0.5 v 0.5 0.5 z m 55,0 H 446 v -0.5 -0.5 h 0.5 0.5 v 0.5 0.5 z m 86,0 H 532 v -0.5 -0.5 h 0.5 0.5 v 0.5 0.5 z m 133,0 H 665 v -0.5 -0.5 h 0.5 0.5 v 0.5 0.5 z m -128,-1 H 537 v -0.5 -0.5 h 0.5 0.5 v 0.5 0.5 z m 5,-1 H 542 v -0.5 -0.5 h 0.5 0.5 v 0.5 0.5 z m 10,0 H 552 v -0.5 -0.5 h 0.5 0.5 v 0.5 0.5 z m -54,-1 H 498 v -0.5 -0.5 h 0.5 0.5 v 0.5 0.5 z m 67,0 H 565 v -0.5 -0.5 h 0.5 0.5 v 0.5 0.5 z m -270,-1 H 295 v -0.5 -0.5 h 0.5 0.5 v 0.5 0.5 z m 208,0 H 503 v -0.5 -0.5 h 0.5 0.5 v 0.5 0.5 z m 161,0 H 664 v -0.5 -0.5 h 0.5 0.5 v 0.5 0.5 z m -239,-1 H 425 v -0.5 -0.5 h 0.5 0.5 v 0.5 0.5 z m 255,-1 H 680 v -0.5 -0.5 h 0.5 0.5 v 0.5 0.5 z m -415,-1 H 265 v -0.5 -0.5 h 0.5 0.5 v 0.5 0.5 z m 30,0 H 295 v -0.5 -0.5 h 0.5 0.5 v 0.5 0.5 z m 60,0 H 355 v -0.5 -0.5 h 0.5 0.5 v 0.5 0.5 z m 58,0 H 413 v -0.5 -0.5 h 0.5 0.5 v 0.5 0.5 z m 155,0 H 568 v -0.5 -0.5 h 0.5 0.5 v 0.5 0.5 z m -161,-1 H 407 v -0.5 -0.5 h 0.5 0.5 v 0.5 0.5 z m 117,0 H 524 v -0.5 -0.5 h 0.5 0.5 v 0.5 0.5 z m 49,0 H 573 v -0.5 -0.5 h 0.5 0.5 v 0.5 0.5 z m -140,-1 H 433 v -0.5 -0.5 h 0.5 0.5 v 0.5 0.5 z m 96,0 H 529 v -0.5 -0.5 h 0.5 0.5 v 0.5 0.5 z m 5,-1 H 534 v -0.5 -0.5 h 0.5 0.5 v 0.5 0.5 z m -237,-1 H 297 v -0.5 -0.5 h 0.5 0.5 v 0.5 0.5 z m -14,-1 H 283 v -0.5 -0.5 h 0.5 0.5 v 0.5 0.5 z m 99,0 H 382 v -0.5 -0.5 h 0.5 0.5 v 0.5 0.5 z m 69.5,0 h -1.33333 l 0.66666,-0.66667 0.66667,-0.66666 0.66667,0.66666 0.66666,0.66667 z m 142.5,0 H 594 v -0.5 -0.5 h 0.5 0.5 v 0.5 0.5 z m -296,-1 H 298 v -0.5 -0.5 h 0.5 0.5 v 0.5 0.5 z m 78,0 H 376 v -0.5 -0.5 h 0.5 0.5 v 0.5 0.5 z m 68,0 H 444 v -0.5 -0.5 h 0.5 0.5 v 0.5 0.5 z m 155,0 H 599 v -0.5 -0.5 h 0.5 0.5 v 0.5 0.5 z m -313,-1 H 286 v -0.5 -0.5 h 0.5 0.5 v 0.5 0.5 z m 84,0 H 370 v -0.5 -0.5 h 0.5 0.5 v 0.5 0.5 z m 68,0 H 438 v -0.5 -0.5 h 0.5 0.5 v 0.5 0.5 z m -139,-1 H 299 v -0.5 -0.5 h 0.5 0.5 v 0.5 0.5 z m 65,0 H 364 v -0.5 -0.5 h 0.5 0.5 v 0.5 0.5 z m 326,0 H 690 v -0.5 -0.5 h 0.5 0.5 v 0.5 0.5 z m 17,0 H 707 v -0.5 -0.5 h 0.5 0.5 v 0.5 0.5 z m -352,-1 H 355 v -0.5 -0.5 h 0.5 0.5 v 0.5 0.5 z m 3,0 H 358 v -0.5 -0.5 h 0.5 0.5 v 0.5 0.5 z m 207,0 H 565 v -0.5 -0.5 h 0.5 0.5 v 0.5 0.5 z m -216,-2 H 349 v -0.5 -0.5 h 0.5 0.5 v 0.5 0.5 z m -103,-1 H 246 v -0.5 -0.5 h 0.5 0.5 v 0.5 0.5 z m 30,0 H 276 v -0.5 -0.5 h 0.5 0.5 v 0.5 0.5 z m 14,0 H 290 v -0.5 -0.5 h 0.5 0.5 v 0.5 0.5 z m 67,0 H 357 v -0.5 -0.5 h 0.5 0.5 v 0.5 0.5 z m 205,0 H 562 v -0.5 -0.5 h 0.5 0.5 v 0.5 0.5 z m 19,0 H 581 v -0.5 -0.5 h 0.5 0.5 v 0.5 0.5 z m -329,-1 H 252 v -0.5 -0.5 h 0.5 0.5 v 0.5 0.5 z m 334,0 H 586 v -0.5 -0.5 h 0.5 0.5 v 0.5 0.5 z m -344,-1 H 242 v -0.5 -0.5 h 0.5 0.5 v 0.5 0.5 z m 349,0 H 591 v -0.5 -0.5 h 0.5 0.5 v 0.5 0.5 z m -337,-1 H 254 v -0.5 -0.5 h 0.5 0.5 v 0.5 0.5 z m 24,-1 H 278 v -0.5 -0.5 h 0.5 0.5 v 0.5 0.5 z m 93,0 H 371 v -0.5 -0.5 h 0.5 0.5 v 0.5 0.5 z m 247,0 H 618 v -0.5 -0.5 h 0.5 0.5 v 0.5 0.5 z m -57,-1 H 561 v -0.5 -0.5 h 0.5 0.5 v 0.5 0.5 z m -282,-1 H 279 v -0.5 -0.5 h 0.5 0.5 v 0.5 0.5 z m 411,0 H 690 v -0.5 -0.5 h 0.5 0.5 v 0.5 0.5 z m 8,0 H 698 v -0.5 -0.5 h 0.5 0.5 v 0.5 0.5 z m -433,-1 H 265 v -0.5 -0.5 h 0.5 0.5 v 0.5 0.5 z m 79,0 H 344 v -0.5 -0.5 h 0.5 0.5 v 0.5 0.5 z m 177,0 H 521 v -0.5 -0.5 h 0.5 0.5 v 0.5 0.5 z m 93,0 H 614 v -0.5 -0.5 h 0.5 0.5 v 0.5 0.5 z m 90,0 H 704 v -0.5 -0.5 h 0.5 0.5 v 0.5 0.5 z m 29,0 H 733 v -0.5 -0.5 h 0.5 0.5 v 0.5 0.5 z m -491,-1 H 242 v -0.5 -0.5 h 0.5 0.5 v 0.5 0.5 z m 206,0 H 448 v -0.5 -0.5 h 0.5 0.5 v 0.5 0.5 z m 78,0 H 526 v -0.5 -0.5 h 0.5 0.5 v 0.5 0.5 z m 86,0 H 612 v -0.5 -0.5 h 0.5 0.5 v 0.5 0.5 z m 123,0 H 735 v -0.5 -0.5 h 0.5 0.5 v 0.5 0.5 z m -437,-1 H 298 v -0.5 -0.5 h 0.5 0.5 v 0.5 0.5 z m 56,0 H 354 v -0.5 -0.5 h 0.5 0.5 v 0.5 0.5 z m 75,0 H 429 v -0.5 -0.5 h 0.5 0.5 v 0.5 0.5 z m 102,0 H 531 v -0.5 -0.5 h 0.5 0.5 v 0.5 0.5 z m 16,0 H 547 v -0.5 -0.5 h 0.5 0.5 v 0.5 0.5 z m 63,0 H 610 v -0.5 -0.5 h 0.5 0.5 v 0.5 0.5 z m -367,-1 H 243 v -0.5 -0.5 h 0.5 0.5 v 0.5 0.5 z m 114,0 H 357 v -0.5 -0.5 h 0.5 0.5 v 0.5 0.5 z m 67,0 H 424 v -0.5 -0.5 h 0.5 0.5 v 0.5 0.5 z M 502.66667,716.66667 502,717.33333 V 716 714.66667 l 0.66667,0.66666 L 503.33333,716 Z M 536.5,717 H 536 v -0.5 -0.5 h 0.5 0.5 v 0.5 0.5 z m 24,0 H 560 v -0.5 -0.5 h 0.5 0.5 v 0.5 0.5 z m -200,-1 H 360 v -0.5 -0.5 h 0.5 0.5 v 0.5 0.5 z m 308,0 H 668 v -0.5 -0.5 h 0.5 0.5 v 0.5 0.5 z m -244,-1 H 424 v -0.5 -0.5 h 0.5 0.5 v 0.5 0.5 z m 179,0 H 603 v -0.5 -0.5 h 0.5 0.5 v 0.5 0.5 z m -335,-1 H 268 v -0.5 -0.5 h 0.5 0.5 v 0.5 0.5 z m 399,0 H 667 v -0.5 -0.5 h 0.5 0.5 v 0.5 0.5 z m -457,-1 H 210 v -0.5 -0.5 h 0.5 0.5 v 0.5 0.5 z m 176.69002,0 h -0.5 l 1.80998,-2 1.80998,-2 h 0.5 0.5 l -1.80998,2 -1.80998,2 z M 508.5,713 H 508 v -0.5 -0.5 h 0.5 0.5 v 0.5 0.5 z m 192,0 H 700 v -0.5 -0.5 h 0.5 0.5 v 0.5 0.5 z m -187,-1 H 513 v -0.5 -0.5 h 0.5 0.5 v 0.5 0.5 z m 49,0 H 562 v -0.5 -0.5 h 0.5 0.5 v 0.5 0.5 z m 151,0 H 713 v -0.5 -0.5 h 0.5 0.5 v 0.5 0.5 z m 35,0 H 748 v -0.5 -0.5 h 0.5 0.5 v 0.5 0.5 z m -230,-1 H 518 v -0.5 -0.5 h 0.5 0.5 v 0.5 0.5 z m 162,0 H 680 v -0.5 -0.5 h 0.5 0.5 v 0.5 0.5 z m 70,0 H 750 v -0.5 -0.5 h 0.5 0.5 v 0.5 0.5 z m -290,-1 H 460 v -0.5 -0.5 h 0.5 0.5 v 0.5 0.5 z m 253,0 H 713 v -0.5 -0.5 h 0.5 0.5 v 0.5 0.5 z m -185,-1 H 528 v -0.5 -0.5 h 0.5 0.5 v 0.5 0.5 z m 151,0 H 679 v -0.5 -0.5 h 0.5 0.5 v 0.5 0.5 z m -267,-1 H 412 v -0.5 -0.5 h 0.5 0.5 v 0.5 0.5 z m 171,0 H 583 v -0.5 -0.5 h 0.5 0.5 v 0.5 0.5 z m 129,0 H 712 v -0.5 -0.5 h 0.5 0.5 v 0.5 0.5 z m 17,0 H 729 v -0.5 -0.5 h 0.5 0.5 v 0.5 0.5 z m -190,-1 H 539 v -0.5 -0.5 h 0.5 0.5 v 0.5 0.5 z m 192,0 H 731 v -0.5 -0.5 h 0.5 0.5 v 0.5 0.5 z m -187,-1 H 544 v -0.5 -0.5 h 0.5 0.5 v 0.5 0.5 z m -313,-1 H 231 v -0.5 -0.5 h 0.5 0.5 v 0.5 0.5 z m 145.88197,0 h -0.5 l 0.61803,-1 0.61803,-1 h 0.5 0.5 l -0.61803,1 -0.61803,1 z M 209.5,704 H 209 v -0.5 -0.5 h 0.5 0.5 v 0.5 0.5 z m -4,-1 H 205 v -0.5 -0.5 h 0.5 0.5 v 0.5 0.5 z m 221,0 H 426 v -0.5 -0.5 h 0.5 0.5 v 0.5 0.5 z m 33,0 H 459 v -0.5 -0.5 h 0.5 0.5 v 0.5 0.5 z m 202,0 H 661 v -0.5 -0.5 h 0.5 0.5 v 0.5 0.5 z m 104,0 H 765 v -0.5 -0.5 h 0.5 0.5 v 0.5 0.5 z m -551,-1 H 214 v -0.5 -0.5 h 0.5 0.5 v 0.5 0.5 z m 199,0 H 413 v -0.5 -0.5 h 0.5 0.5 v 0.5 0.5 z m 57,0 H 470 v -0.5 -0.5 h 0.5 0.5 v 0.5 0.5 z m 95,0 H 565 v -0.5 -0.5 h 0.5 0.5 v 0.5 0.5 z m 73,0 H 638 v -0.5 -0.5 h 0.5 0.5 v 0.5 0.5 z m -193,-1 H 445 v -0.5 -0.5 h 0.5 0.5 v 0.5 0.5 z m 215,0 H 660 v -0.5 -0.5 h 0.5 0.5 v 0.5 0.5 z m -442,-1 H 218 v -0.5 -0.5 h 0.5 0.5 v 0.5 0.5 z m 179,0 H 397 v -0.5 -0.5 h 0.5 0.5 v 0.5 0.5 z m 178,0 H 575 v -0.5 -0.5 h 0.5 0.5 v 0.5 0.5 z m 150,0 H 725 v -0.5 -0.5 h 0.5 0.5 v 0.5 0.5 z m 19,0 H 744 v -0.5 -0.5 h 0.5 0.5 v 0.5 0.5 z m -524,-1 H 220 v -0.5 -0.5 h 0.5 0.5 v 0.5 0.5 z m 138,0 H 358 v -0.5 -0.5 h 0.5 0.5 v 0.5 0.5 z m 136,0 H 494 v -0.5 -0.5 h 0.5 0.5 v 0.5 0.5 z m 86,0 H 580 v -0.5 -0.5 h 0.5 0.5 v 0.5 0.5 z m 56,0 H 636 v -0.5 -0.5 h 0.5 0.5 v 0.5 0.5 z m 23,0 H 659 v -0.5 -0.5 h 0.5 0.5 v 0.5 0.5 z m 87,0 H 746 v -0.5 -0.5 h 0.5 0.5 v 0.5 0.5 z m -556,-1 H 190 v -0.5 -0.5 h 0.5 0.5 v 0.5 0.5 z m 460,0 H 650 v -0.5 -0.5 h 0.5 0.5 v 0.5 0.5 z m 59,0 H 709 v -0.5 -0.5 h 0.5 0.5 v 0.5 0.5 z m 20,0 H 729 v -0.5 -0.5 h 0.5 0.5 v 0.5 0.5 z m -346,-1 H 383 v -0.5 -0.5 h 0.5 0.5 v 0.5 0.5 z m 19,0 H 402 v -0.5 -0.5 h 0.5 0.5 v 0.5 0.5 z m 256,0 H 658 v -0.5 -0.5 h 0.5 0.5 v 0.5 0.5 z m 53,0 H 711 v -0.5 -0.5 h 0.5 0.5 v 0.5 0.5 z m -348,-1 H 363 v -0.5 -0.5 h 0.5 0.5 v 0.5 0.5 z m 51,0 H 414 v -0.5 -0.5 h 0.5 0.5 v 0.5 0.5 z m 17,0 H 431 v -0.5 -0.5 h 0.5 0.5 v 0.5 0.5 z m 17,0 H 448 v -0.5 -0.5 h 0.5 0.5 v 0.5 0.5 z m 206,0 H 654 v -0.5 -0.5 h 0.5 0.5 v 0.5 0.5 z m 18,0 H 672 v -0.5 -0.5 h 0.5 0.5 v 0.5 0.5 z m 19,0 H 691 v -0.5 -0.5 h 0.5 0.5 v 0.5 0.5 z m -483,-1 H 208 v -0.5 -0.5 h 0.5 0.5 v 0.5 0.5 z m 61,0 H 269 v -0.5 -0.5 h 0.5 0.5 v 0.5 0.5 z m 175,0 H 444 v -0.5 -0.5 h 0.5 0.5 v 0.5 0.5 z m 157,0 H 601 v -0.5 -0.5 h 0.5 0.5 v 0.5 0.5 z m 55,0 H 656 v -0.5 -0.5 h 0.5 0.5 v 0.5 0.5 z m -363,-1 H 293 v -0.5 -0.5 h 0.5 0.5 v 0.5 0.5 z m 145,0 H 438 v -0.5 -0.5 h 0.5 0.5 v 0.5 0.5 z m 146,0 H 584 v -0.5 -0.5 h 0.5 0.5 v 0.5 0.5 z m 15,0 H 599 v -0.5 -0.5 h 0.5 0.5 v 0.5 0.5 z m -302.11803,-1 h -0.5 l 0.61803,-1 0.61803,-1 h 0.5 0.5 l -0.61803,1 -0.61803,1 z M 304.5,693 H 304 v -0.5 -0.5 h 0.5 0.5 v 0.5 0.5 z m 11,0 H 315 v -0.5 -0.5 h 0.5 0.5 v 0.5 0.5 z m 90,0 H 405 v -0.5 -0.5 h 0.5 0.5 v 0.5 0.5 z m 63.05902,0 h -0.44099 l -0.71352,-1.15451 -0.71353,-1.15451 1.15451,0.71353 L 469,692.11803 V 692.55902 693 Z M 524.5,693 H 524 v -0.5 -0.5 h 0.5 0.5 v 0.5 0.5 z m -295.11803,-1 h -0.5 l 0.61803,-1 0.61803,-1 h 0.5 0.5 l -0.61803,1 -0.61803,1 z M 742.5,692 H 742 v -0.5 -0.5 h 0.5 0.5 v 0.5 0.5 z m -496,-1 H 246 v -0.5 -0.5 h 0.5 0.5 v 0.5 0.5 z m 251,0 H 497 v -0.5 -0.5 h 0.5 0.5 v 0.5 0.5 z m 58,0 H 555 v -0.5 -0.5 h 0.5 0.5 v 0.5 0.5 z m 206,0 H 761 v -0.5 -0.5 h 0.5 0.5 v 0.5 0.5 z m -567,-1 H 194 v -0.5 -0.5 h 0.5 0.5 v 0.5 0.5 z m 63,0 H 257 v -0.5 -0.5 h 0.5 0.5 v 0.5 0.5 z m 93,0 H 350 v -0.5 -0.5 h 0.5 0.5 v 0.5 0.5 z m 54,0 H 404 v -0.5 -0.5 h 0.5 0.5 v 0.5 0.5 z m 61.12244,0 h -0.37755 l -1.37245,-1.75 -1.37244,-1.75 1.75,1.37244 1.75,1.37245 V 689.62244 690 Z M 535.5,690 H 535 v -0.5 -0.5 h 0.5 0.5 v 0.5 0.5 z m 134,0 H 669 v -0.5 -0.5 h 0.5 0.5 v 0.5 0.5 z m 35,0 H 704 v -0.5 -0.5 h 0.5 0.5 v 0.5 0.5 z m 20,0 H 724 v -0.5 -0.5 h 0.5 0.5 v 0.5 0.5 z m 39,0 H 763 v -0.5 -0.5 h 0.5 0.5 v 0.5 0.5 z m -356,-1 H 407 v -0.5 -0.5 h 0.5 0.5 v 0.5 0.5 z m -197,-1 H 210 v -0.5 -0.5 h 0.5 0.5 v 0.5 0.5 z m 48,0 H 258 v -0.5 -0.5 h 0.5 0.5 v 0.5 0.5 z m 40,0 H 298 v -0.5 -0.5 h 0.5 0.5 v 0.5 0.5 z m -16,-1 H 282 v -0.5 -0.5 h 0.5 0.5 v 0.5 0.5 z m -23,-1 H 259 v -0.5 -0.5 h 0.5 0.5 v 0.5 0.5 z m 202.05902,0 h -0.44099 l -0.71352,-1.15451 -0.71353,-1.15451 1.15451,0.71353 L 462,685.11803 V 685.55902 686 Z M 554.5,686 H 554 v -0.5 -0.5 h 0.5 0.5 v 0.5 0.5 z m 218,0 H 772 v -0.5 -0.5 h 0.5 0.5 v 0.5 0.5 z m -522,-1 H 250 v -0.5 -0.5 h 0.5 0.5 v 0.5 0.5 z m 33,0 H 283 v -0.5 -0.5 h 0.5 0.5 v 0.5 0.5 z m 100,0 H 383 v -0.5 -0.5 h 0.5 0.5 v 0.5 0.5 z m -123,-1 H 260 v -0.5 -0.5 h 0.5 0.5 v 0.5 0.5 z m 18,0 H 278 v -0.5 -0.5 h 0.5 0.5 v 0.5 0.5 z m 25,0 H 303 v -0.5 -0.5 h 0.5 0.5 v 0.5 0.5 z m 74,0 H 377 v -0.5 -0.5 h 0.5 0.5 v 0.5 0.5 z m 79,0 H 456 v -0.5 -0.5 h 0.5 0.5 v 0.5 0.5 z m -258,-1 H 198 v -0.5 -0.5 h 0.5 0.5 v 0.5 0.5 z m 86,0 H 284 v -0.5 -0.5 h 0.5 0.5 v 0.5 0.5 z m 9,0 H 293 v -0.5 -0.5 h 0.5 0.5 v 0.5 0.5 z m 78,0 H 371 v -0.5 -0.5 h 0.5 0.5 v 0.5 0.5 z m 51,-1 H 422 v -0.5 -0.5 h 0.5 0.5 v 0.5 0.5 z m -64,-1 H 358 v -0.5 -0.5 h 0.5 0.5 v 0.5 0.5 z m 58,0 H 416 v -0.5 -0.5 h 0.5 0.5 v 0.5 0.5 z m 285,0 H 701 v -0.5 -0.5 h 0.5 0.5 v 0.5 0.5 z m 20,0 H 721 v -0.5 -0.5 h 0.5 0.5 v 0.5 0.5 z m -483,-1 H 238 v -0.5 -0.5 h 0.5 0.5 v 0.5 0.5 z m 24,0 H 262 v -0.5 -0.5 h 0.5 0.5 v 0.5 0.5 z m 268,0 H 530 v -0.5 -0.5 h 0.5 0.5 v 0.5 0.5 z m 173,0 H 703 v -0.5 -0.5 h 0.5 0.5 v 0.5 0.5 z m -488,-1 H 215 v -0.5 -0.5 h 0.5 0.5 v 0.5 0.5 z m 78,0 H 293 v -0.5 -0.5 h 0.5 0.5 v 0.5 0.5 z m 389,0 H 682 v -0.5 -0.5 h 0.5 0.5 v 0.5 0.5 z m 53,0 H 735 v -0.5 -0.5 h 0.5 0.5 v 0.5 0.5 z M 200.66667,676.66667 200,677.33333 V 676 674.66667 l 0.66667,0.66666 L 201.33333,676 Z M 538.5,677 H 538 v -0.5 -0.5 h 0.5 0.5 v 0.5 0.5 z m 196,0 H 734 v -0.5 -0.5 h 0.5 0.5 v 0.5 0.5 z m -479,-1 H 255 v -0.5 -0.5 h 0.5 0.5 v 0.5 0.5 z m 30,0 H 285 v -0.5 -0.5 h 0.5 0.5 v 0.5 0.5 z m 101,0 H 386 v -0.5 -0.5 h 0.5 0.5 v 0.5 0.5 z m 17,0 H 403 v -0.5 -0.5 h 0.5 0.5 v 0.5 0.5 z m -144,-1 H 259 v -0.5 -0.5 h 0.5 0.5 v 0.5 0.5 z m 102,0 H 361 v -0.5 -0.5 h 0.5 0.5 v 0.5 0.5 z m 57,0 H 418 v -0.5 -0.5 h 0.5 0.5 v 0.5 0.5 z m 168.5,0 h -1.33333 l 0.66666,-0.66667 0.66667,-0.66666 0.66667,0.66666 0.66666,0.66667 z m 112.5,0 H 699 v -0.5 -0.5 h 0.5 0.5 v 0.5 0.5 z m -109,-1 H 590 v -0.5 -0.5 h 0.5 0.5 v 0.5 0.5 z m 157,0 H 747 v -0.5 -0.5 h 0.5 0.5 v 0.5 0.5 z m -549,-1 H 198 v -0.5 -0.5 h 0.5 0.5 v 0.5 0.5 z m 79,0 H 277 v -0.5 -0.5 h 0.5 0.5 v 0.5 0.5 z m 271,0 H 548 v -0.5 -0.5 h 0.5 0.5 v 0.5 0.5 z m 168,0 H 716 v -0.5 -0.5 h 0.5 0.5 v 0.5 0.5 z m 2,-1 H 718 v -0.5 -0.5 h 0.5 0.5 v 0.5 0.5 z m 28,0 H 746 v -0.5 -0.5 h 0.5 0.5 v 0.5 0.5 z m -475.94098,-1 h -0.44099 l -0.71352,-1.15451 -0.71353,-1.15451 1.15451,0.71353 L 271,670.11803 V 670.55902 671 Z M 553.5,671 H 553 v -0.5 -0.5 h 0.5 0.5 v 0.5 0.5 z m -149,-1 H 404 v -0.5 -0.5 h 0.5 0.5 v 0.5 0.5 z m 341,0 H 745 v -0.5 -0.5 h 0.5 0.5 v 0.5 0.5 z m -486,-1 H 259 v -0.5 -0.5 h 0.5 0.5 v 0.5 0.5 z m 35,0 H 294 v -0.5 -0.5 h 0.5 0.5 v 0.5 0.5 z m 35,0 H 329 v -0.5 -0.5 h 0.5 0.5 v 0.5 0.5 z m 34,0 H 363 v -0.5 -0.5 h 0.5 0.5 v 0.5 0.5 z m 7,0 H 370 v -0.5 -0.5 h 0.5 0.5 v 0.5 0.5 z m 221,0 H 591 v -0.5 -0.5 h 0.5 0.5 v 0.5 0.5 z m -264,-1 H 327 v -0.5 -0.5 h 0.5 0.5 v 0.5 0.5 z m -70,-1 h -0.38197 l -0.51502,-0.83333 -0.51503,-0.83334 h 1.41202 1.41202 l -0.51503,0.83334 L 257.88197,667 Z m 111,0 H 368 v -0.5 -0.5 h 0.5 0.5 v 0.5 0.5 z m 326,0 H 694 v -0.5 -0.5 h 0.5 0.5 v 0.5 0.5 z m 20,0 H 714 v -0.5 -0.5 h 0.5 0.5 v 0.5 0.5 z m -504,-1 H 210 v -0.5 -0.5 h 0.5 0.5 v 0.5 0.5 z m 33,0 H 243 v -0.5 -0.5 h 0.5 0.5 v 0.5 0.5 z m 432,0 H 675 v -0.5 -0.5 h 0.5 0.5 v 0.5 0.5 z m 53,0 H 728 v -0.5 -0.5 h 0.5 0.5 v 0.5 0.5 z m -323,-1 H 405 v -0.5 -0.5 h 0.5 0.5 v 0.5 0.5 z m 10,0 H 415 v -0.5 -0.5 h 0.5 0.5 v 0.5 0.5 z m 283,0 H 698 v -0.5 -0.5 h 0.5 0.5 v 0.5 0.5 z m -391.94098,-1 h -0.44099 l -0.71352,-1.15451 -0.71353,-1.15451 1.15451,0.71353 L 307,663.11803 V 663.55902 664 Z M 674.5,664 H 674 v -0.5 -0.5 h 0.5 0.5 v 0.5 0.5 z m -103,-1 H 571 v -0.5 -0.5 h 0.5 0.5 v 0.5 0.5 z m 77,0 H 648 v -0.5 -0.5 h 0.5 0.5 v 0.5 0.5 z m -75,-1 H 573 v -0.5 -0.5 h 0.5 0.5 v 0.5 0.5 z m 100,0 H 673 v -0.5 -0.5 h 0.5 0.5 v 0.5 0.5 z m 15,0 H 688 v -0.5 -0.5 h 0.5 0.5 v 0.5 0.5 z m 38,0 H 726 v -0.5 -0.5 h 0.5 0.5 v 0.5 0.5 z m -431,-1 H 295 v -0.5 -0.5 h 0.5 0.5 v 0.5 0.5 z m -143,-2 H 152 v -0.5 -0.5 h 0.5 0.5 v 0.5 0.5 z m 66,0 H 218 v -0.5 -0.5 h 0.5 0.5 v 0.5 0.5 z m 82,0 H 300 v -0.5 -0.5 h 0.5 0.5 v 0.5 0.5 z m -157,-1 H 143 v -0.5 -0.5 h 0.5 0.5 v 0.5 0.5 z m 5,0 H 148 v -0.5 -0.5 h 0.5 0.5 v 0.5 0.5 z m 485,0 H 633 v -0.5 -0.5 h 0.5 0.5 v 0.5 0.5 z m -3,-1 H 630 v -0.5 -0.5 h 0.5 0.5 v 0.5 0.5 z m 25,0 H 655 v -0.5 -0.5 h 0.5 0.5 v 0.5 0.5 z m -388.11803,-1 h -0.5 l 0.61803,-1 0.61803,-1 h 0.5 0.5 l -0.61803,1 -0.61803,1 z M 625,656 h -1.33333 l 0.66666,-0.66667 0.66667,-0.66666 0.66667,0.66666 0.66666,0.66667 z m 32.5,0 H 657 v -0.5 -0.5 h 0.5 0.5 v 0.5 0.5 z m -416,-1 H 241 v -0.5 -0.5 h 0.5 0.5 v 0.5 0.5 z m 61,0 H 302 v -0.5 -0.5 h 0.5 0.5 v 0.5 0.5 z m 318,0 H 620 v -0.5 -0.5 h 0.5 0.5 v 0.5 0.5 z m 39,0 H 659 v -0.5 -0.5 h 0.5 0.5 v 0.5 0.5 z m 15,0 H 674 v -0.5 -0.5 h 0.5 0.5 v 0.5 0.5 z m 27,0 H 701 v -0.5 -0.5 h 0.5 0.5 v 0.5 0.5 z m 36,0 H 737 v -0.5 -0.5 h 0.5 0.5 v 0.5 0.5 z m -437,-1 H 300 v -0.5 -0.5 h 0.5 0.5 v 0.5 0.5 z m 383,0 H 683 v -0.5 -0.5 h 0.5 0.5 v 0.5 0.5 z m -458.11803,-1 h -0.5 l 0.61803,-1 0.61803,-1 h 0.5 0.5 l -0.61803,1 -0.61803,1 z M 241.5,653 H 241 v -0.5 -0.5 h 0.5 0.5 v 0.5 0.5 z m 18,0 H 259 v -0.5 -0.5 h 0.5 0.5 v 0.5 0.5 z m 10.81291,0 H 270 v -0.31291 -0.31291 l 3.25,-2.93709 3.25,-2.93709 -2.93709,3.25 -2.93709,3.25 z M 298.5,653 H 298 v -0.5 -0.5 h 0.5 0.5 v 0.5 0.5 z m 387,0 H 685 v -0.5 -0.5 h 0.5 0.5 v 0.5 0.5 z m -547,-1 H 138 v -0.5 -0.5 h 0.5 0.5 v 0.5 0.5 z m 17,0 H 155 v -0.5 -0.5 h 0.5 0.5 v 0.5 0.5 z m 141,0 H 296 v -0.5 -0.5 h 0.5 0.5 v 0.5 0.5 z m 21,0 H 317 v -0.5 -0.5 h 0.5 0.5 v 0.5 0.5 z m 3,-1 H 320 v -0.5 -0.5 h 0.5 0.5 v 0.5 0.5 z m 298,0 H 618 v -0.5 -0.5 h 0.5 0.5 v 0.5 0.5 z m 31,0 H 649 v -0.5 -0.5 h 0.5 0.5 v 0.5 0.5 z m -422,-2 H 227 v -0.5 -0.5 h 0.5 0.5 v 0.5 0.5 z m 419,0 H 646 v -0.5 -0.5 h 0.5 0.5 v 0.5 0.5 z m -417,-1 H 229 v -0.5 -0.5 h 0.5 0.5 v 0.5 0.5 z m 415,0 H 644 v -0.5 -0.5 h 0.5 0.5 v 0.5 0.5 z m 28,0 H 672 v -0.5 -0.5 h 0.5 0.5 v 0.5 0.5 z m -425,-1 H 247 v -0.5 -0.5 h 0.5 0.5 v 0.5 0.5 z m 378,0 H 625 v -0.5 -0.5 h 0.5 0.5 v 0.5 0.5 z m 29,0 H 654 v -0.5 -0.5 h 0.5 0.5 v 0.5 0.5 z m 20,0 H 674 v -0.5 -0.5 h 0.5 0.5 v 0.5 0.5 z m -454,-1 H 220 v -0.5 -0.5 h 0.5 0.5 v 0.5 0.5 z m 13,0 H 233 v -0.5 -0.5 h 0.5 0.5 v 0.5 0.5 z m 465.05902,0 h -0.44099 l -0.71352,-1.15451 -0.71353,-1.15451 1.15451,0.71353 L 699,645.11803 V 645.55902 646 Z M 816.5,646 H 816 v -0.5 -0.5 h 0.5 0.5 v 0.5 0.5 z m -158,-1 H 658 v -0.5 -0.5 h 0.5 0.5 v 0.5 0.5 z m 42,0 H 700 v -0.5 -0.5 h 0.5 0.5 v 0.5 0.5 z m -398.94098,-1 h -0.44099 l -0.71352,-1.15451 -0.71353,-1.15451 1.15451,0.71353 L 302,643.11803 V 643.55902 644 Z M 837.5,644 H 837 v -0.5 -0.5 h 0.5 0.5 v 0.5 0.5 z m -618,-1 H 219 v -0.5 -0.5 h 0.5 0.5 v 0.5 0.5 z m 465,-1 H 684 v -0.5 -0.5 h 0.5 0.5 v 0.5 0.5 z m 127,0 H 811 v -0.5 -0.5 h 0.5 0.5 v 0.5 0.5 z m -571,-2 H 240 v -0.5 -0.5 h 0.5 0.5 v 0.5 0.5 z m 62,-1 H 302 v -0.5 -0.5 h 0.5 0.5 v 0.5 0.5 z M 219.66667,637.66667 219,638.33333 V 637 635.66667 l 0.66667,0.66666 L 220.33333,637 Z M 267.5,637 H 267 v -0.5 -0.5 h 0.5 0.5 v 0.5 0.5 z m 36,0 H 303 v -0.5 -0.5 h 0.5 0.5 v 0.5 0.5 z m 502,0 H 805 v -0.5 -0.5 h 0.5 0.5 v 0.5 0.5 z m -540,-1 H 265 v -0.5 -0.5 h 0.5 0.5 v 0.5 0.5 z m 399,0 H 664 v -0.5 -0.5 h 0.5 0.5 v 0.5 0.5 z m -401,-1 H 263 v -0.5 -0.5 h 0.5 0.5 v 0.5 0.5 z m 560,0 H 823 v -0.5 -0.5 h 0.5 0.5 v 0.5 0.5 z m 4,0 H 827 v -0.5 -0.5 h 0.5 0.5 v 0.5 0.5 z M 219.66667,633.66667 219,634.33333 V 633 631.66667 l 0.66667,0.66666 L 220.33333,633 Z M 653.5,633 H 653 v -0.5 -0.5 h 0.5 0.5 v 0.5 0.5 z m 73,0 H 726 v -0.5 -0.5 h 0.5 0.5 v 0.5 0.5 z m 74,0 H 800 v -0.5 -0.5 h 0.5 0.5 v 0.5 0.5 z m -668,-1 H 132 v -0.5 -0.5 h 0.5 0.5 v 0.5 0.5 z m 159,0 H 291 v -0.5 -0.5 h 0.5 0.5 v 0.5 0.5 z m 389,0 H 680 v -0.5 -0.5 h 0.5 0.5 v 0.5 0.5 z m 39,0 H 719 v -0.5 -0.5 h 0.5 0.5 v 0.5 0.5 z m -69,-1 H 650 v -0.5 -0.5 h 0.5 0.5 v 0.5 0.5 z m 54,0 H 704 v -0.5 -0.5 h 0.5 0.5 v 0.5 0.5 z m 114,0 H 818 v -0.5 -0.5 h 0.5 0.5 v 0.5 0.5 z m 8,0 H 826 v -0.5 -0.5 h 0.5 0.5 v 0.5 0.5 z m -534,-1 H 292 v -0.5 -0.5 h 0.5 0.5 v 0.5 0.5 z m 414,0 H 706 v -0.5 -0.5 h 0.5 0.5 v 0.5 0.5 z m -18,-1 H 688 v -0.5 -0.5 h 0.5 0.5 v 0.5 0.5 z m -395,-1 H 293 v -0.5 -0.5 h 0.5 0.5 v 0.5 0.5 z m 357,-1 H 650 v -0.5 -0.5 h 0.5 0.5 v 0.5 0.5 z m -384,-1 H 266 v -0.5 -0.5 h 0.5 0.5 v 0.5 0.5 z m 28,0 H 294 v -0.5 -0.5 h 0.5 0.5 v 0.5 0.5 z m 189,-0.48625 -29,0.3437 -9.5,-0.93748 -9.5,-0.93749 -15.05765,-2.50411 -15.05765,-2.50411 -13.44235,-3.42932 -13.44235,-3.42933 -13.22563,-4.54453 -13.22562,-4.54452 -12.75009,-5.51687 -12.75009,-5.51688 -11.69327,-6.40916 -11.69327,-6.40916 -9.69549,-6.09374 -9.6955,-6.09374 -11.19415,-8.40791 -11.19415,-8.4079 -9.44137,-8.41903 -9.44137,-8.41903 -10.23282,-10.733 -10.23281,-10.733 -8.19765,-10.18357 -8.19765,-10.18357 -8.21289,-12.5 -8.2129,-12.5 -5.01196,-9.08186 -5.01196,-9.08186 -4.53896,-9.91814 -4.53897,-9.91814 -3.56233,-9.35313 -3.56234,-9.35313 -3.45959,-11.41211 -3.45958,-11.41211 -2.50176,-11.84895 -2.50176,-11.84895 -1.5807,-11.88581 -1.5807,-11.88581 -0.58911,-17.5 -0.58911,-17.5 1.22517,-14 1.22517,-14 1.94661,-12 1.9466,-12 3.58295,-14 3.58294,-14 4.97759,-13.5 4.97758,-13.5 6.29814,-13.16675 6.29813,-13.16674 5.77429,-9.83326 5.77429,-9.83325 5.53254,-8 5.53254,-8 9.54943,-12 9.54942,-12 13.50108,-13.536451 13.50108,-13.536452 10,-8.010574 10,-8.010574 8.5,-6.062568 8.5,-6.062569 8.5,-5.258211 8.5,-5.258211 11,-5.828977 11,-5.828976 11.5,-5.138391 11.5,-5.138392 17.5,-5.841933 17.5,-5.841933 16,-3.5497779 16,-3.5497776 15.5,-2.0483234 15.5,-2.04832338 20.5,-0.61521429 20.5,-0.61521428 13.5,1.17714808 13.5,1.17714807 14,1.9978181 14,1.997818 16,3.930837 16,3.9308366 13,4.397207 13,4.397206 9,3.760077 9,3.760076 12.61545,6.317067 12.61545,6.317068 9.26834,5.620075 9.26834,5.620075 7.61621,5.126322 7.61621,5.126323 6.5,4.981011 6.5,4.981011 9.53751,8.252302 9.53751,8.252303 10.96249,11.350434 10.96249,11.35043 7.63378,9.48012 7.63379,9.48013 6.07727,8.73233 6.07727,8.73233 6.11943,10.26767 6.11943,10.26767 6.32952,13 6.32953,13 4.46167,12 4.46167,12 3.10733,11 3.10733,11 2.06538,10 2.06538,10 1.50465,10 1.50465,10 0.59184,22.0992 0.59184,22.09919 -1.20989,12.90081 -1.2099,12.9008 -1.98551,11.5 -1.98551,11.5 -2.46749,9.76806 -2.46749,9.76807 -2.58102,8.23193 -2.58103,8.23194 -4.82387,12.12091 -4.82386,12.12091 -5.6839,11.33338 -5.68391,11.33338 -6.08967,10.04571 -6.08966,10.04571 -6.01764,8.48798 -6.01763,8.48798 -6.47916,8.01202 -6.47917,8.01202 -8.55273,9.37318 -8.55272,9.37319 -11.5,10.14719 -11.5,10.14719 -8,6.05044 -8,6.05045 -8,5.4965 -8,5.49649 -11.5,6.63434 -11.5,6.63435 -12.51774,5.98531 -12.51775,5.9853 -10.48225,4.09171 -10.48226,4.0917 -14.61366,4.40553 -14.61366,4.40554 -11.88634,2.50735 -11.88634,2.50735 -14,2.14346 -14,2.14347 z m -8.5,-53.67657 5.5,0.12163 14.68156,-0.95118 14.68156,-0.95118 10.81844,-1.59093 10.81844,-1.59094 12.5,-2.95366 12.5,-2.95366 11,-3.59929 11,-3.59929 8.5,-3.50528 8.5,-3.50528 10,-4.96389 10,-4.96389 8.5,-5.11583 8.5,-5.11584 5,-3.47424 5,-3.47424 5.5,-4.04385 5.5,-4.04384 9.69341,-8.33647 9.69341,-8.33646 7.94521,-8.39357 7.94521,-8.39356 6.69737,-8.30122 6.69737,-8.30122 7.87323,-11.82573 7.87323,-11.82572 6.0568,-11.88003 6.0568,-11.88003 4.50555,-11.52293 4.50556,-11.52294 3.40892,-12.43819 3.40893,-12.43819 2.30242,-12.83312 2.30242,-12.83312 -0.0152,-27.5 -0.0152,-27.5 -1.72728,-9.79878 -1.72728,-9.79878 -2.41786,-10.20122 -2.41786,-10.20122 -3.17446,-9.5 -3.17446,-9.5 -3.9919,-9.5 -3.99189,-9.5 -5.42365,-10.18105 -5.42365,-10.18105 -6.80442,-10.31895 -6.80443,-10.31895 -8.05864,-10 -8.05865,-10 -10.36972,-10.5 -10.36972,-10.5 -10.10326,-8.10524 -10.10326,-8.10524 -11.39651,-7.54991 -11.3965,-7.549908 -8,-4.376381 -8,-4.376381 L 595,79.773718 582.5,74.110495 570.74167,70.090703 558.98334,66.070912 546.74167,63.105357 534.5,60.139803 525,58.590189 l -9.5,-1.549614 -11,-1.019452 -11,-1.019451 -15,0.0026 -15,0.0026 -11.5,1.034503 -11.5,1.034503 -11.5,2.012872 -11.5,2.012872 -11.93702,3.011191 -11.93702,3.011191 -12.56298,4.53264 -12.56298,4.532641 -12.15643,5.791972 -12.15642,5.791971 -9.84358,5.770722 -9.84357,5.770723 -9.9418,7.023757 -9.9418,7.02375 -10.0582,8.66999 -10.0582,8.66999 -9.00627,9.39894 -9.00626,9.39894 -6.4148,8 -6.41479,8 -7.24471,11 -7.2447,11 -6.02965,11.5 -6.02965,11.5 -4.61971,11.5 -4.61971,11.5 -3.34803,12 -3.34802,12 -1.16841,5.80136 -1.16841,5.80136 -1.45193,9.19864 -1.45193,9.19864 -0.60177,17.5 -0.60177,17.5 1.15755,12 1.15756,12 2.05353,11.41963 2.05353,11.41963 3.49282,12.08037 3.49283,12.08037 3.55513,9 3.55513,9 5.68597,11.5 5.68596,11.5 5.86243,9.43043 5.86243,9.43043 6.57782,8.72456 6.57783,8.72456 8.2918,9.47083 8.2918,9.47083 8.2082,7.44131 8.2082,7.4413 7.5,6.02993 7.5,6.02992 9.5,6.51495 9.5,6.51496 11.13536,6.19837 11.13536,6.19837 11.36464,5.07682 11.36464,5.07683 14.5,4.77049 14.5,4.77048 11.71349,2.61319 11.71349,2.61319 9.95891,1.48909 9.95892,1.48908 11.8276,0.84781 11.82759,0.84781 z M 637.1997,515 h -3.89962 l -3.90004,-2.82536 -3.90004,-2.82535 -5.03164,-5.92465 -5.03164,-5.92464 -2.57015,-3.5 -2.57014,-3.5 -1.57059,-3.05022 -1.57058,-3.05022 0.57302,-15.69978 0.57301,-15.69978 -2.90064,0.002 -2.90065,0.002 -15,1.50535 -15,1.50535 -8.5,1.00767 -8.5,1.00768 -9,1.46105 -9,1.46105 -9.5,1.09348 -9.5,1.09348 -17,2.98463 -17,2.98462 -29.5,5.49254 -29.5,5.49255 -15,3.90785 -15,3.90786 -13.5,4.42447 -13.5,4.42447 -21.22806,8.17015 -21.22807,8.17015 -3.77193,-0.68578 -3.77194,-0.68578 -5,-2.50149 -5,-2.50149 -7.52218,-7.61216 -7.52218,-7.61216 -2.88251,-5.82008 -2.8825,-5.82008 -0.46106,-7.18426 -0.46105,-7.18426 10.10167,-14.35625 10.10167,-14.35624 2.14191,-6.63942 2.14191,-6.63941 0.48115,-12.47403 0.48116,-12.47403 -1.19501,-5.33988 -1.19502,-5.33989 -3.44944,-7.5693 -3.44944,-7.56929 -0.11824,-3.14533 -0.11825,-3.14533 1.14603,-2.14138 1.14603,-2.14137 3.4953,-1.15355 3.4953,-1.15355 5.66195,1.17541 5.66195,1.17542 7.85839,3.36353 7.85839,3.36353 11.90927,6.07171 11.90928,6.07171 3.58276,3.96569 L 370,389.0053 v 5.76392 5.76392 l -7.00866,21.9832 -7.00866,21.9832 -0.51756,1.6203 -0.51757,1.6203 9.27623,-1.81619 9.27622,-1.8162 13,-2.48032 13,-2.48033 24.5,-3.66391 24.5,-3.66392 1.5,-0.76873 1.5,-0.76874 0.23896,-62.89113 0.23896,-62.89113 -0.77559,-1.21377 -0.77558,-1.21377 -9.96338,1.94255 -9.96337,1.94255 -15.5,3.11768 -15.5,3.11768 -19,5.0097 -19,5.0097 -11,3.96211 -11,3.96212 -4.70151,-0.41682 -4.7015,-0.41683 -5.58225,-3.38319 -5.58225,-3.3832 -6.75753,-6.63807 -6.75753,-6.63806 -3.3364,-6.25974 -3.33641,-6.25973 0.10366,-8.00705 0.10365,-8.00704 0.6638,-2.11341 0.6638,-2.11341 4.92264,-5.39887 4.92265,-5.39888 4.00967,-8.24368 4.00966,-8.24367 1.91079,-7.35745 1.91078,-7.35745 0.0171,-9.5685 0.0171,-9.5685 -1.54314,-5.19633 -1.54315,-5.19633 -3.95685,-8.18227 -3.95686,-8.18228 v -2.86863 -2.86864 l 0.97889,-1.82908 0.97889,-1.82907 3.17033,-1.10519 3.17034,-1.10518 h 3.92446 3.92446 l 7.42141,2.49129 7.42142,2.49129 14.7549,7.41368 14.7549,7.41369 3.32776,3.47286 3.32776,3.47286 0.86007,3.81347 0.86008,3.81347 -0.90549,4.77462 -0.90549,4.77462 -4.12277,14.28408 -4.12277,14.28407 -2.91128,8.41496 -2.91128,8.41496 0.2789,0.2789 0.27889,0.27889 10.47281,-0.94097 10.47281,-0.94097 6.5,-1.0201 6.5,-1.0201 25.87684,-2.379 25.87684,-2.379 0.85785,-1.35378 0.85784,-1.35379 -0.004,-24.5 -0.004,-24.5 -0.95672,-27.5 -0.95672,-27.5 -2.03328,-20.22701 -2.03327,-20.22701 -1.48106,-7.27299 L 443.02005,96.5 436.96482,84.730466 430.90959,72.960932 432.2048,70.320401 433.5,67.67987 436.33098,65.589935 439.16196,63.5 l 10.16902,0.162377 10.16902,0.162378 10.06798,1.997711 10.06799,1.997711 7.57286,2.940554 7.57287,2.940553 7.08368,4.709224 7.08369,4.709223 1.89427,2.690135 1.89427,2.690134 0.67304,2.169511 0.67303,2.16951 -1.96553,7.830489 -1.96553,7.83049 -1.56796,10.06678 -1.56795,10.06678 -1.01541,16.43322 -1.01541,16.43322 -0.65528,45.25 -0.65529,45.25 4.91234,-0.0115 4.91234,-0.0115 25,-2.04082 25,-2.04082 16.29044,-0.58898 16.29044,-0.58898 1.20322,-2.1087 1.20323,-2.1087 0.006,-24 0.006,-24 -1.35808,-5.28474 -1.35807,-5.28475 -3.53692,-4.21525 -3.53691,-4.21526 -1.42261,-3.37968 -1.42262,-3.37968 1.19419,-2.88304 1.1942,-2.88304 2.49431,-0.62603 2.49431,-0.62603 9.6291,0.56333 9.6291,0.56334 8.96469,2.63325 8.96469,2.63325 11.53531,4.98356 11.53531,4.98356 3.99175,2.7513 3.99176,2.7513 1.27842,2.45731 1.27843,2.4573 -0.59986,3.43319 -0.59986,3.43318 -3.43438,6.81977 -3.43438,6.81977 -1.97415,12.24704 -1.97415,12.24705 -3.60539,22.91901 -3.60539,22.91902 -1.95613,7.46831 -1.95614,7.46832 -1.99358,3.90773 -1.99357,3.90773 -3.48601,3.8586 -3.48601,3.85859 -4.42838,2.08159 -4.42838,2.08158 -3.50008,0.43412 -3.50007,0.43412 -3.6604,-1.12341 -3.6604,-1.12341 -4.3166,-4.19525 -4.31659,-4.19525 -2.94114,-5.8507 -2.94113,-5.8507 -0.70996,-3.2792 -0.70997,-3.27921 -3.16413,0.51653 -3.16413,0.51653 -31.5,3.00752 -31.5,3.00752 -8.968,1.05649 -8.968,1.05649 -0.532,0.53151 -0.532,0.53151 -0.67434,59.16716 -0.67434,59.16715 -0.55057,4.20649 -0.55056,4.20649 0.7249,0.43419 0.72491,0.4342 13.5,-1.35236 13.5,-1.35236 25,-3.06849 25,-3.06848 14.75,-1.69104 14.75,-1.69103 -0.005,-5.02881 -0.005,-5.0288 -1.0221,-16.5 -1.02209,-16.5 -1.0333,-5.83841 -1.03329,-5.83842 0.63355,-2.88452 0.63354,-2.88453 2.8277,-3.02706 2.8277,-3.02706 h 7.53341 7.53342 l 7.2305,1.52098 7.2305,1.52099 8.92687,2.99077 8.92687,2.99078 4.43084,2.59664 4.43083,2.59664 1.12329,2.09889 1.1233,2.09889 -0.64453,13.54271 -0.64453,13.54271 -1.9979,20 -1.99791,20 -2.48202,29.37605 -2.48203,29.37606 -0.65687,3.62394 -0.65687,3.62395 -1.97082,4 -1.97082,4 -3.64397,3.83242 -3.64398,3.83242 -2.70034,1.41758 L 641.09932,515 Z M 812.5,626 H 812 v -0.5 -0.5 h 0.5 0.5 v 0.5 0.5 z m 25.5,0 h -1.33333 l 0.66666,-0.66667 0.66667,-0.66666 0.66667,0.66666 L 839.33333,626 Z M 131.5,625 H 131 v -0.5 -0.5 h 0.5 0.5 v 0.5 0.5 z m 133,0 H 264 v -0.5 -0.5 h 0.5 0.5 v 0.5 0.5 z m 407,0 H 671 v -0.5 -0.5 h 0.5 0.5 v 0.5 0.5 z m 170,0 H 841 v -0.5 -0.5 h 0.5 0.5 v 0.5 0.5 z m -579,-1 H 262 v -0.5 -0.5 h 0.5 0.5 v 0.5 0.5 z m 399,0 H 661 v -0.5 -0.5 h 0.5 0.5 v 0.5 0.5 z m -418,-1 H 243 v -0.5 -0.5 h 0.5 0.5 v 0.5 0.5 z m 17,0 H 260 v -0.5 -0.5 h 0.5 0.5 v 0.5 0.5 z m 431,0 H 691 v -0.5 -0.5 h 0.5 0.5 v 0.5 0.5 z m 161,0 H 852 v -0.5 -0.5 h 0.5 0.5 v 0.5 0.5 z m -754,-1 H 98 v -0.5 -0.5 h 0.5 0.5 v 0.5 0.5 z m 45,0 H 143 v -0.5 -0.5 h 0.5 0.5 v 0.5 0.5 z m 578,0 H 721 v -0.5 -0.5 h 0.5 0.5 v 0.5 0.5 z m 86,0 H 807 v -0.5 -0.5 h 0.5 0.5 v 0.5 0.5 z m -585,-1 H 222 v -0.5 -0.5 h 0.5 0.5 v 0.5 0.5 z m 481,0 H 703 v -0.5 -0.5 h 0.5 0.5 v 0.5 0.5 z m 20,0 H 723 v -0.5 -0.5 h 0.5 0.5 v 0.5 0.5 z m -627,-2 H 96 v -0.5 -0.5 h 0.5 0.5 v 0.5 0.5 z m 52,0 H 148 v -0.5 -0.5 h 0.5 0.5 v 0.5 0.5 z m 655,-1 H 803 v -0.5 -0.5 h 0.5 0.5 v 0.5 0.5 z m -25,-3 H 778 v -0.5 -0.5 h 0.5 0.5 v 0.5 0.5 z m 53,0 H 831 v -0.5 -0.5 h 0.5 0.5 v 0.5 0.5 z M 117.37756,614 H 117 v -0.37756 -0.37755 l 1.75,-1.37245 1.75,-1.37244 -1.37244,1.75 -1.37245,1.75 z M 712.5,614 H 712 v -0.5 -0.5 h 0.5 0.5 v 0.5 0.5 z m 106,0 H 818 v -0.5 -0.5 h 0.5 0.5 v 0.5 0.5 z m -67,-1 H 751 v -0.5 -0.5 h 0.5 0.5 v 0.5 0.5 z m -496,-1 H 255 v -0.5 -0.5 h 0.5 0.5 v 0.5 0.5 z M 141.66667,610.66667 141,611.33333 V 610 608.66667 l 0.66667,0.66666 L 142.33333,610 Z M 761.5,611 H 761 v -0.5 -0.5 h 0.5 0.5 v 0.5 0.5 z m 12,0 H 773 v -0.5 -0.5 h 0.5 0.5 v 0.5 0.5 z m 90,0 H 863 v -0.5 -0.5 h 0.5 0.5 v 0.5 0.5 z m -160,-1 H 703 v -0.5 -0.5 h 0.5 0.5 v 0.5 0.5 z m 91,0 H 794 v -0.5 -0.5 h 0.5 0.5 v 0.5 0.5 z m -645.87756,-1 h -0.37755 l -1.37245,-1.75 -1.37244,-1.75 1.75,1.37244 1.75,1.37245 V 608.62244 609 Z M 811.5,609 H 811 v -0.5 -0.5 h 0.5 0.5 v 0.5 0.5 z m 30,0 H 841 v -0.5 -0.5 h 0.5 0.5 v 0.5 0.5 z m -665.11803,-2 h -0.5 l 0.61803,-1 0.61803,-1 h 0.5 0.5 l -0.61803,1 -0.61803,1 z M 768.5,607 H 768 v -0.5 -0.5 h 0.5 0.5 v 0.5 0.5 z m 59,0 H 827 v -0.5 -0.5 h 0.5 0.5 v 0.5 0.5 z m -74,-1 H 753 v -0.5 -0.5 h 0.5 0.5 v 0.5 0.5 z m 44,0 H 797 v -0.5 -0.5 h 0.5 0.5 v 0.5 0.5 z m -640,-1 H 157 v -0.5 -0.5 h 0.5 0.5 v 0.5 0.5 z m 681,0 H 838 v -0.5 -0.5 h 0.5 0.5 v 0.5 0.5 z m -35,-1 H 803 v -0.5 -0.5 h 0.5 0.5 v 0.5 0.5 z m 22,0 H 825 v -0.5 -0.5 h 0.5 0.5 v 0.5 0.5 z M 854.66667,603.66667 854,604.33333 V 603 601.66667 l 0.66667,0.66666 L 855.33333,603 Z M 789.5,603 H 789 v -0.5 -0.5 h 0.5 0.5 v 0.5 0.5 z m 9,0 H 798 v -0.5 -0.5 h 0.5 0.5 v 0.5 0.5 z m 54,0 H 852 v -0.5 -0.5 h 0.5 0.5 v 0.5 0.5 z m -613,-3 H 239 v -0.5 -0.5 h 0.5 0.5 v 0.5 0.5 z m 541,0 H 780 v -0.5 -0.5 h 0.5 0.5 v 0.5 0.5 z m -563.11803,-1 h -0.5 l 0.61803,-1 0.61803,-1 h 0.5 0.5 l -0.61803,1 -0.61803,1 z M 799.5,599 H 799 v -0.5 -0.5 h 0.5 0.5 v 0.5 0.5 z m 7,0 H 806 v -0.5 -0.5 h 0.5 0.5 v 0.5 0.5 z m 16,0 H 822 v -0.5 -0.5 h 0.5 0.5 v 0.5 0.5 z m -707.11803,-1 h -0.5 l 0.61803,-1 0.61803,-1 h 0.5 0.5 l -0.61803,1 -0.61803,1 z M 189.5,598 H 189 v -0.5 -0.5 h 0.5 0.5 v 0.5 0.5 z m 568,0 H 757 v -0.5 -0.5 h 0.5 0.5 v 0.5 0.5 z m -565,-2 H 192 v -0.5 -0.5 h 0.5 0.5 v 0.5 0.5 z m 583,0 H 775 v -0.5 -0.5 h 0.5 0.5 v 0.5 0.5 z m 15,0 H 790 v -0.5 -0.5 h 0.5 0.5 v 0.5 0.5 z m 62,-2 H 852 v -0.5 -0.5 h 0.5 0.5 v 0.5 0.5 z m -101,-1 H 751 v -0.5 -0.5 h 0.5 0.5 v 0.5 0.5 z m 73,0 H 824 v -0.5 -0.5 h 0.5 0.5 v 0.5 0.5 z m 40,0 H 864 v -0.5 -0.5 h 0.5 0.5 v 0.5 0.5 z m 3,0 H 867 v -0.5 -0.5 h 0.5 0.5 v 0.5 0.5 z m -748,-1 H 119 v -0.5 -0.5 h 0.5 0.5 v 0.5 0.5 z m 86.12244,0 h -0.37755 l -1.37245,-1.75 -1.37244,-1.75 1.75,1.37244 1.75,1.37245 V 591.62244 592 Z m 637.93658,0 h -0.44099 l -0.71352,-1.15451 -0.71353,-1.15451 1.15451,0.71353 L 844,591.11803 V 591.55902 592 Z M 108.5,591 H 108 v -0.5 -0.5 h 0.5 0.5 v 0.5 0.5 z m 743,0 H 851 v -0.5 -0.5 h 0.5 0.5 v 0.5 0.5 z m 30,0 H 881 v -0.5 -0.5 h 0.5 0.5 v 0.5 0.5 z m -738,-1 H 143 v -0.5 -0.5 h 0.5 0.5 v 0.5 0.5 z m 32,0 H 175 v -0.5 -0.5 h 0.5 0.5 v 0.5 0.5 z m 603,0 H 778 v -0.5 -0.5 h 0.5 0.5 v 0.5 0.5 z m -684,-1 H 94 v -0.5 -0.5 h 0.5 0.5 v 0.5 0.5 z m 652,0 H 746 v -0.5 -0.5 h 0.5 0.5 v 0.5 0.5 z m -657,-1 H 89 v -0.5 -0.5 h 0.5 0.5 v 0.5 0.5 z m 724,0 H 813 v -0.5 -0.5 h 0.5 0.5 v 0.5 0.5 z m 3,0 H 816 v -0.5 -0.5 h 0.5 0.5 v 0.5 0.5 z m -662.94098,-1 h -0.44099 l -0.71352,-1.15451 -0.71353,-1.15451 1.15451,0.71353 L 154,586.11803 V 586.55902 587 Z M 81.5,586 H 81 v -0.5 -0.5 h 0.5 0.5 v 0.5 0.5 z m 111,0 H 192 v -0.5 -0.5 h 0.5 0.5 v 0.5 0.5 z m 26,0 H 218 v -0.5 -0.5 h 0.5 0.5 v 0.5 0.5 z m -53.87756,-1 h -0.37755 l -1.37245,-1.75 -1.37244,-1.75 1.75,1.37244 1.75,1.37245 V 584.62244 585 Z M 818.5,585 H 818 v -0.5 -0.5 h 0.5 0.5 v 0.5 0.5 z m 46,0 H 864 v -0.5 -0.5 h 0.5 0.5 v 0.5 0.5 z m -790,-1 H 74 v -0.5 -0.5 h 0.5 0.5 v 0.5 0.5 z m 709,0 H 783 v -0.5 -0.5 h 0.5 0.5 v 0.5 0.5 z m 77,-1 H 860 v -0.5 -0.5 h 0.5 0.5 v 0.5 0.5 z m 25,-1 H 885 v -0.5 -0.5 h 0.5 0.5 v 0.5 0.5 z m -700,-1 H 185 v -0.5 -0.5 h 0.5 0.5 v 0.5 0.5 z m 583,0 H 768 v -0.5 -0.5 h 0.5 0.5 v 0.5 0.5 z m 78,0 H 846 v -0.5 -0.5 h 0.5 0.5 v 0.5 0.5 z M 113,580 h -1.33333 l 0.66666,-0.66667 0.66667,-0.66666 0.66667,0.66666 0.66666,0.66667 z m 622.5,0 H 735 v -0.5 -0.5 h 0.5 0.5 v 0.5 0.5 z m -674,-1 H 61 v -0.5 -0.5 h 0.5 0.5 v 0.5 0.5 z m 40,0 H 101 v -0.5 -0.5 h 0.5 0.5 v 0.5 0.5 z m 689,0 H 790 v -0.5 -0.5 h 0.5 0.5 v 0.5 0.5 z m -697,-1 H 93 v -0.5 -0.5 h 0.5 0.5 v 0.5 0.5 z m 660,0 H 753 v -0.5 -0.5 h 0.5 0.5 v 0.5 0.5 z m 132,0 H 885 v -0.5 -0.5 h 0.5 0.5 v 0.5 0.5 z m -82,-1 H 803 v -0.5 -0.5 h 0.5 0.5 v 0.5 0.5 z m 34,0 H 837 v -0.5 -0.5 h 0.5 0.5 v 0.5 0.5 z m -669.94098,-1 h -0.44099 l -0.71352,-1.15451 -0.71353,-1.15451 1.15451,0.71353 L 168,575.11803 V 575.55902 576 Z M 769.5,576 H 769 v -0.5 -0.5 h 0.5 0.5 v 0.5 0.5 z m 54,0 H 823 v -0.5 -0.5 h 0.5 0.5 v 0.5 0.5 z m -718,-1 H 105 v -0.5 -0.5 h 0.5 0.5 v 0.5 0.5 z m 751,0 H 856 v -0.5 -0.5 h 0.5 0.5 v 0.5 0.5 z m -782,-1 H 74 v -0.5 -0.5 h 0.5 0.5 v 0.5 0.5 z m 114.05902,0 h -0.44099 l -0.71352,-1.15451 -0.71353,-1.15451 1.15451,0.71353 L 189,573.11803 V 573.55902 574 Z M 114.5,573 H 114 v -0.5 -0.5 h 0.5 0.5 v 0.5 0.5 z m 63.12244,0 h -0.37755 l -1.37245,-1.75 -1.37244,-1.75 1.75,1.37244 1.75,1.37245 V 572.62244 573 Z M 67.5,572 H 67 v -0.5 -0.5 h 0.5 0.5 v 0.5 0.5 z m 59.15499,0 h -0.34501 l -1.90499,-2.25 -1.90499,-2.25 2.25,1.90499 2.25,1.90499 V 571.65499 572 Z M 829.5,572 H 829 v -0.5 -0.5 h 0.5 0.5 v 0.5 0.5 z m -765,-1 H 64 v -0.5 -0.5 h 0.5 0.5 v 0.5 0.5 z m 134.05902,0 h -0.44099 l -0.71352,-1.15451 -0.71353,-1.15451 1.15451,0.71353 L 199,570.11803 V 570.55902 571 Z M 868.5,571 H 868 v -0.5 -0.5 h 0.5 0.5 v 0.5 0.5 z m -730.87756,-1 h -0.37755 l -1.37245,-1.75 -1.37244,-1.75 1.75,1.37244 1.75,1.37245 V 569.62244 570 Z M 738.5,570 H 738 v -0.5 -0.5 h 0.5 0.5 v 0.5 0.5 z m -638,-1 H 100 v -0.5 -0.5 h 0.5 0.5 v 0.5 0.5 z m 648,-1 H 748 v -0.5 -0.5 h 0.5 0.5 v 0.5 0.5 z m -600.53254,-1 h -0.72257 l -1.37245,-1.75 -1.37244,-1.75 1.76876,1.38801 1.76876,1.38801 2.23124,-1.88801 L 152.5,562.5 l -1.90499,2.25 -1.90499,2.25 z M 742.5,567 H 742 v -0.5 -0.5 h 0.5 0.5 v 0.5 0.5 z m 32,0 H 774 v -0.5 -0.5 h 0.5 0.5 v 0.5 0.5 z m 25,-2 H 799 v -0.5 -0.5 h 0.5 0.5 v 0.5 0.5 z m 64.05902,0 h -0.44099 l -0.71352,-1.15451 -0.71353,-1.15451 1.15451,0.71353 L 864,564.11803 V 564.55902 565 Z M 879.5,565 H 879 v -0.5 -0.5 h 0.5 0.5 v 0.5 0.5 z m -775.11803,-1 h -0.5 l 0.61803,-1 0.61803,-1 h 0.5 0.5 l -0.61803,1 -0.61803,1 z m 66,0 h -0.5 l 0.61803,-1 0.61803,-1 h 0.5 0.5 l -0.61803,1 -0.61803,1 z M 803.5,564 H 803 v -0.5 -0.5 h 0.5 0.5 v 0.5 0.5 z m -679.11803,-1 h -0.5 l 0.61803,-1 0.61803,-1 h 0.5 0.5 l -0.61803,1 -0.61803,1 z M 766.5,562 H 766 v -0.5 -0.5 h 0.5 0.5 v 0.5 0.5 z m 12,0 H 778 v -0.5 -0.5 h 0.5 0.5 v 0.5 0.5 z m 72,-1 H 850 v -0.5 -0.5 h 0.5 0.5 v 0.5 0.5 z m 26,0 H 876 v -0.5 -0.5 h 0.5 0.5 v 0.5 0.5 z m -727,-4 H 149 v -0.5 -0.5 h 0.5 0.5 v 0.5 0.5 z m 692.05902,-1 h -0.44099 l -0.71352,-1.15451 -0.71353,-1.15451 1.15451,0.71353 L 842,555.11803 V 555.55902 556 Z M 805.5,555 H 805 v -0.5 -0.5 h 0.5 0.5 v 0.5 0.5 z m 38,0 H 843 v -0.5 -0.5 h 0.5 0.5 v 0.5 0.5 z m -661,-1 H 182 v -0.5 -0.5 h 0.5 0.5 v 0.5 0.5 z m 688.05902,0 h -0.44099 l -0.71352,-1.15451 -0.71353,-1.15451 1.15451,0.71353 L 871,553.11803 V 553.55902 554 Z M 794.5,552 H 794 v -0.5 -0.5 h 0.5 0.5 v 0.5 0.5 z m -19,-1 H 775 v -0.5 -0.5 h 0.5 0.5 v 0.5 0.5 z M 189,550 h -1.33333 l 0.66666,-0.66667 0.66667,-0.66666 0.66667,0.66666 0.66666,0.66667 z m -48.5,-2 H 140 v -0.5 -0.5 h 0.5 0.5 v 0.5 0.5 z m 52,0 H 192 v -0.5 -0.5 h 0.5 0.5 v 0.5 0.5 z M 837.66667,547.66667 837,548.33333 V 547 545.66667 l 0.66667,0.66666 L 838.33333,547 Z M 864.5,548 H 864 v -0.5 -0.5 h 0.5 0.5 v 0.5 0.5 z m -742.11803,-1 h -0.5 l 0.61803,-1 0.61803,-1 h 0.5 0.5 l -0.61803,1 -0.61803,1 z M 846.66667,546.66667 846,547.33333 V 546 544.66667 l 0.66667,0.66666 L 847.33333,546 Z M 774.5,546 H 774 v -0.5 -0.5 h 0.5 0.5 v 0.5 0.5 z m 53,0 H 827 v -0.5 -0.5 h 0.5 0.5 v 0.5 0.5 z M 863.66667,544.66667 863,545.33333 V 544 542.66667 l 0.66667,0.66666 L 864.33333,544 Z M 192.5,543 H 192 v -0.5 -0.5 h 0.5 0.5 v 0.5 0.5 z m 656,0 H 848 v -0.5 -0.5 h 0.5 0.5 v 0.5 0.5 z m -23,-1 H 825 v -0.5 -0.5 h 0.5 0.5 v 0.5 0.5 z m -15,-2 H 810 v -0.5 -0.5 h 0.5 0.5 v 0.5 0.5 z m -664,-1 H 146 v -0.5 -0.5 h 0.5 0.5 v 0.5 0.5 z m 9.05902,0 h -0.44099 l -0.71352,-1.15451 -0.71353,-1.15451 1.15451,0.71353 L 156,538.11803 V 538.55902 539 Z M 768.5,539 H 768 v -0.5 -0.5 h 0.5 0.5 v 0.5 0.5 z m -600.87756,-1 h -0.37755 l -1.37245,-1.75 -1.37244,-1.75 1.75,1.37244 1.75,1.37245 V 537.62244 538 Z M 784.5,538 H 784 v -0.5 -0.5 h 0.5 0.5 v 0.5 0.5 z m 24,-1 H 808 v -0.5 -0.5 h 0.5 0.5 v 0.5 0.5 z m -20,-2 H 788 v -0.5 -0.5 h 0.5 0.5 v 0.5 0.5 z m 12,0 H 800 v -0.5 -0.5 h 0.5 0.5 v 0.5 0.5 z m -615,-1 H 185 v -0.5 -0.5 h 0.5 0.5 v 0.5 0.5 z m -40,-1 H 145 v -0.5 -0.5 h 0.5 0.5 v 0.5 0.5 z m -6,-2 H 139 v -0.5 -0.5 h 0.5 0.5 v 0.5 0.5 z m 4,-1 H 143 v -0.5 -0.5 h 0.5 0.5 v 0.5 0.5 z m 649,0 H 792 v -0.5 -0.5 h 0.5 0.5 v 0.5 0.5 z m -19,-2 H 773 v -0.5 -0.5 h 0.5 0.5 v 0.5 0.5 z m 44,-1 H 817 v -0.5 -0.5 h 0.5 0.5 v 0.5 0.5 z m -21,-5 H 796 v -0.5 -0.5 h 0.5 0.5 v 0.5 0.5 z m 17,0 H 813 v -0.5 -0.5 h 0.5 0.5 v 0.5 0.5 z m -675.94098,-2 h -0.44099 l -0.71352,-1.15451 -0.71353,-1.15451 1.15451,0.71353 L 138,519.11803 V 519.55902 520 Z M 43.5,519 H 43 v -0.5 -0.5 h 0.5 0.5 v 0.5 0.5 z m 105.05902,-1 h -0.44099 l -0.71352,-1.15451 -0.71353,-1.15451 1.15451,0.71353 L 149,517.11803 V 517.55902 518 Z m 762,0 h -0.44099 l -0.71352,-1.15451 -0.71353,-1.15451 1.15451,0.71353 L 911,517.11803 V 517.55902 518 Z M 923.5,517 H 923 v -0.5 -0.5 h 0.5 0.5 v 0.5 0.5 z m -872,-1 H 51 v -0.5 -0.5 h 0.5 0.5 v 0.5 0.5 z m 751,-1 H 802 v -0.5 -0.5 h 0.5 0.5 v 0.5 0.5 z m 11,0 H 813 v -0.5 -0.5 h 0.5 0.5 v 0.5 0.5 z m 64,0 H 877 v -0.5 -0.5 h 0.5 0.5 v 0.5 0.5 z m 51,0 H 928 v -0.5 -0.5 h 0.5 0.5 v 0.5 0.5 z m -796,-1 H 132 v -0.5 -0.5 h 0.5 0.5 v 0.5 0.5 z m 751,0 H 883 v -0.5 -0.5 h 0.5 0.5 v 0.5 0.5 z m -829,-1 H 54 v -0.5 -0.5 h 0.5 0.5 v 0.5 0.5 z m 855,0 H 909 v -0.5 -0.5 h 0.5 0.5 v 0.5 0.5 z m -871,-2 H 38 v -0.5 -0.5 h 0.5 0.5 v 0.5 0.5 z m 18,-1 H 56 v -0.5 -0.5 h 0.5 0.5 v 0.5 0.5 z m 819,-1 H 875 v -0.5 -0.5 h 0.5 0.5 v 0.5 0.5 z m 10,0 H 885 v -0.5 -0.5 h 0.5 0.5 v 0.5 0.5 z m -749,-1 H 136 v -0.5 -0.5 h 0.5 0.5 v 0.5 0.5 z m -63,-3 H 73 v -0.5 -0.5 h 0.5 0.5 v 0.5 0.5 z m -14,-1 H 59 v -0.5 -0.5 h 0.5 0.5 v 0.5 0.5 z m 13,-1 H 72 v -0.5 -0.5 h 0.5 0.5 v 0.5 0.5 z m 806,-2 H 878 v -0.5 -0.5 h 0.5 0.5 v 0.5 0.5 z m -833,-1 H 45 v -0.5 -0.5 h 0.5 0.5 v 0.5 0.5 z m 45,-2 H 90 v -0.5 -0.5 h 0.5 0.5 v 0.5 0.5 z m 799,0 H 889 v -0.5 -0.5 h 0.5 0.5 v 0.5 0.5 z m -842,-1 H 47 v -0.5 -0.5 h 0.5 0.5 v 0.5 0.5 z m 817,0 H 864 v -0.5 -0.5 h 0.5 0.5 v 0.5 0.5 z m -773,-1 H 91 v -0.5 -0.5 h 0.5 0.5 v 0.5 0.5 z m 763,0 H 854 v -0.5 -0.5 h 0.5 0.5 v 0.5 0.5 z m -806,-1 H 48 v -0.5 -0.5 h 0.5 0.5 v 0.5 0.5 z m 14,0 H 62 v -0.5 -0.5 h 0.5 0.5 v 0.5 0.5 z m -13,-2 H 49 v -0.5 -0.5 h 0.5 0.5 v 0.5 0.5 z m 1,-2 H 50 v -0.5 -0.5 h 0.5 0.5 v 0.5 0.5 z m 28,-1 H 78 v -0.5 -0.5 h 0.5 0.5 v 0.5 0.5 z m 804,0 H 882 v -0.5 -0.5 h 0.5 0.5 v 0.5 0.5 z m 28,-1 H 910 v -0.5 -0.5 h 0.5 0.5 v 0.5 0.5 z m -17,-2 H 893 v -0.5 -0.5 h 0.5 0.5 v 0.5 0.5 z m -815,-1 H 78 v -0.5 -0.5 h 0.5 0.5 v 0.5 0.5 z m 784,-1 H 862 v -0.5 -0.5 h 0.5 0.5 v 0.5 0.5 z m -768,-1 H 94 v -0.5 -0.5 h 0.5 0.5 v 0.5 0.5 z m 768,-1 H 862 v -0.5 -0.5 h 0.5 0.5 v 0.5 0.5 z m 6,0 H 868 v -0.5 -0.5 h 0.5 0.5 v 0.5 0.5 z m 51,-1 H 919 v -0.5 -0.5 h 0.5 0.5 v 0.5 0.5 z m -855,-1 H 64 v -0.5 -0.5 h 0.5 0.5 v 0.5 0.5 z m 836,0 H 900 v -0.5 -0.5 h 0.5 0.5 v 0.5 0.5 z m 31,0 H 931 v -0.5 -0.5 h 0.5 0.5 v 0.5 0.5 z m -45,-2 H 886 v -0.5 -0.5 h 0.5 0.5 v 0.5 0.5 z m 10,0 H 896 v -0.5 -0.5 h 0.5 0.5 v 0.5 0.5 z m -873,-2 H 23 v -0.5 -0.5 h 0.5 0.5 v 0.5 0.5 z m 61,0 H 84 v -0.5 -0.5 h 0.5 0.5 v 0.5 0.5 z m 775.88197,0 h -0.5 l 0.61803,-1 0.61803,-1 h 0.5 0.5 l -0.61803,1 -0.61803,1 z M 932.5,477 H 932 v -0.5 -0.5 h 0.5 0.5 v 0.5 0.5 z m -61,-1 H 871 v -0.5 -0.5 h 0.5 0.5 v 0.5 0.5 z m -856,-2 H 15 v -0.5 -0.5 h 0.5 0.5 v 0.5 0.5 z m 98,0 H 113 v -0.5 -0.5 h 0.5 0.5 v 0.5 0.5 z m 746,0 H 859 v -0.5 -0.5 h 0.5 0.5 v 0.5 0.5 z m -787,-1 H 72 v -0.5 -0.5 h 0.5 0.5 v 0.5 0.5 z m 861,0 H 933 v -0.5 -0.5 h 0.5 0.5 v 0.5 0.5 z m -920,-2 H 13 v -0.5 -0.5 h 0.5 0.5 v 0.5 0.5 z m 58,0 H 71 v -0.5 -0.5 h 0.5 0.5 v 0.5 0.5 z m 787,0 H 858 v -0.5 -0.5 h 0.5 0.5 v 0.5 0.5 z m 31,0 H 889 v -0.5 -0.5 h 0.5 0.5 v 0.5 0.5 z m 19,0 H 908 v -0.5 -0.5 h 0.5 0.5 v 0.5 0.5 z m -827,-1 H 81 v -0.5 -0.5 h 0.5 0.5 v 0.5 0.5 z m 764,0 H 845 v -0.5 -0.5 h 0.5 0.5 v 0.5 0.5 z m -832,-1 H 13 v -0.5 -0.5 h 0.5 0.5 v 0.5 0.5 z m 910,0 H 923 v -0.5 -0.5 h 0.5 0.5 v 0.5 0.5 z m 11,0 H 934 v -0.5 -0.5 h 0.5 0.5 v 0.5 0.5 z m -827,-1 H 107 v -0.5 -0.5 h 0.5 0.5 v 0.5 0.5 z m 737,0 H 844 v -0.5 -0.5 h 0.5 0.5 v 0.5 0.5 z m 20,0 H 864 v -0.5 -0.5 h 0.5 0.5 v 0.5 0.5 z m -742,-1 H 122 v -0.5 -0.5 h 0.5 0.5 v 0.5 0.5 z m -70,-1 H 52 v -0.5 -0.5 h 0.5 0.5 v 0.5 0.5 z m 791,0 H 843 v -0.5 -0.5 h 0.5 0.5 v 0.5 0.5 z m -825,-1 H 18 v -0.5 -0.5 h 0.5 0.5 v 0.5 0.5 z m 61,0 H 79 v -0.5 -0.5 h 0.5 0.5 v 0.5 0.5 z m 21,0 H 100 v -0.5 -0.5 h 0.5 0.5 v 0.5 0.5 z m 775,0 H 875 v -0.5 -0.5 h 0.5 0.5 v 0.5 0.5 z m -815,-2 H 60 v -0.5 -0.5 h 0.5 0.5 v 0.5 0.5 z m 18,0 H 78 v -0.5 -0.5 h 0.5 0.5 v 0.5 0.5 z m 17,0 H 95 v -0.5 -0.5 h 0.5 0.5 v 0.5 0.5 z m 760,0 H 855 v -0.5 -0.5 h 0.5 0.5 v 0.5 0.5 z m -732,-2 H 123 v -0.5 -0.5 h 0.5 0.5 v 0.5 0.5 z m 731,0 H 854 v -0.5 -0.5 h 0.5 0.5 v 0.5 0.5 z m -766,-1 H 88 v -0.5 -0.5 h 0.5 0.5 v 0.5 0.5 z m 752,0 H 840 v -0.5 -0.5 h 0.5 0.5 v 0.5 0.5 z m 53,0 H 893 v -0.5 -0.5 h 0.5 0.5 v 0.5 0.5 z m -859,-1 H 34 v -0.5 -0.5 h 0.5 0.5 v 0.5 0.5 z m 42,-1 H 76 v -0.5 -0.5 h 0.5 0.5 v 0.5 0.5 z m 7,0 H 83 v -0.5 -0.5 h 0.5 0.5 v 0.5 0.5 z m 785,-1 H 868 v -0.5 -0.5 h 0.5 0.5 v 0.5 0.5 z m 10,0 H 878 v -0.5 -0.5 h 0.5 0.5 v 0.5 0.5 z m 26,0 H 904 v -0.5 -0.5 h 0.5 0.5 v 0.5 0.5 z m -790,-1 H 114 v -0.5 -0.5 h 0.5 0.5 v 0.5 0.5 z m -38,-1 H 76 v -0.5 -0.5 h 0.5 0.5 v 0.5 0.5 z m -29,-1 H 47 v -0.5 -0.5 h 0.5 0.5 v 0.5 0.5 z m 57,-1 H 104 v -0.5 -0.5 h 0.5 0.5 v 0.5 0.5 z m 824,0 H 928 v -0.5 -0.5 h 0.5 0.5 v 0.5 0.5 z m -9,-1 H 919 v -0.5 -0.5 h 0.5 0.5 v 0.5 0.5 z m -864,-1 H 55 v -0.5 -0.5 h 0.5 0.5 v 0.5 0.5 z m 39,-1 H 94 v -0.5 -0.5 h 0.5 0.5 v 0.5 0.5 z m 740,0 H 834 v -0.5 -0.5 h 0.5 0.5 v 0.5 0.5 z m 95,0 H 929 v -0.5 -0.5 h 0.5 0.5 v 0.5 0.5 z m -32,-1 H 897 v -0.5 -0.5 h 0.5 0.5 v 0.5 0.5 z m 27,0 H 924 v -0.5 -0.5 h 0.5 0.5 v 0.5 0.5 z m -882,-1 H 42 v -0.5 -0.5 h 0.5 0.5 v 0.5 0.5 z m 42,-1 H 84 v -0.5 -0.5 h 0.5 0.5 v 0.5 0.5 z m 748,0 H 832 v -0.5 -0.5 h 0.5 0.5 v 0.5 0.5 z m 50,-1 H 882 v -0.5 -0.5 h 0.5 0.5 v 0.5 0.5 z m 48,0 H 930 v -0.5 -0.5 h 0.5 0.5 v 0.5 0.5 z m -871,-1 H 59 v -0.5 -0.5 h 0.5 0.5 v 0.5 0.5 z m 857,-1 H 916 v -0.5 -0.5 h 0.5 0.5 v 0.5 0.5 z m -878,-1 H 38 v -0.5 -0.5 h 0.5 0.5 v 0.5 0.5 z m 33,0 H 71 v -0.5 -0.5 h 0.5 0.5 v 0.5 0.5 z m 7,-1 H 78 v -0.5 -0.5 h 0.5 0.5 v 0.5 0.5 z m 3,0 H 81 v -0.5 -0.5 h 0.5 0.5 v 0.5 0.5 z m 860,0 H 941 v -0.5 -0.5 h 0.5 0.5 v 0.5 0.5 z m -816,-2 H 125 v -0.5 -0.5 h 0.5 0.5 v 0.5 0.5 z m 819,0 H 944 v -0.5 -0.5 h 0.5 0.5 v 0.5 0.5 z m -894,-1 H 50 v -0.5 -0.5 h 0.5 0.5 v 0.5 0.5 z m 24,0 H 74 v -0.5 -0.5 h 0.5 0.5 v 0.5 0.5 z m 41,0 H 115 v -0.5 -0.5 h 0.5 0.5 v 0.5 0.5 z m 806,0 H 921 v -0.5 -0.5 h 0.5 0.5 v 0.5 0.5 z m -46,-1 H 875 v -0.5 -0.5 h 0.5 0.5 v 0.5 0.5 z m 26,0 H 901 v -0.5 -0.5 h 0.5 0.5 v 0.5 0.5 z m 10,0 H 911 v -0.5 -0.5 h 0.5 0.5 v 0.5 0.5 z m -844,-1 H 67 v -0.5 -0.5 h 0.5 0.5 v 0.5 0.5 z m 59,-1 H 126 v -0.5 -0.5 h 0.5 0.5 v 0.5 0.5 z m 719,0 H 845 v -0.5 -0.5 h 0.5 0.5 v 0.5 0.5 z m -823,-1 H 22 v -0.5 -0.5 h 0.5 0.5 v 0.5 0.5 z m 826,0 H 848 v -0.5 -0.5 h 0.5 0.5 v 0.5 0.5 z m -794,-1 H 54 v -0.5 -0.5 h 0.5 0.5 v 0.5 0.5 z m 36,0 H 90 v -0.5 -0.5 h 0.5 0.5 v 0.5 0.5 z m 11,0 H 101 v -0.5 -0.5 h 0.5 0.5 v 0.5 0.5 z m 827,-1 H 928 v -0.5 -0.5 h 0.5 0.5 v 0.5 0.5 z m -801,-1 H 127 v -0.5 -0.5 h 0.5 0.5 v 0.5 0.5 z m -81,-1 H 46 v -0.5 -0.5 h 0.5 0.5 v 0.5 0.5 z m 47,0 H 93 v -0.5 -0.5 h 0.5 0.5 v 0.5 0.5 z m -79,-1 H 14 v -0.5 -0.5 h 0.5 0.5 v 0.5 0.5 z m 859,0 H 873 v -0.5 -0.5 h 0.5 0.5 v 0.5 0.5 z m 31,0 H 904 v -0.5 -0.5 h 0.5 0.5 v 0.5 0.5 z m -865,-1 H 39 v -0.5 -0.5 h 0.5 0.5 v 0.5 0.5 z m 25,0 H 64 v -0.5 -0.5 h 0.5 0.5 v 0.5 0.5 z m -53,-1 H 11 v -0.5 -0.5 h 0.5 0.5 v 0.5 0.5 z m 855,0 H 866 v -0.5 -0.5 h 0.5 0.5 v 0.5 0.5 z m 92,0 H 958 v -0.5 -0.5 h 0.5 0.5 v 0.5 0.5 z m -925,-1 H 33 v -0.5 -0.5 h 0.5 0.5 v 0.5 0.5 z m 856,0 H 889 v -0.5 -0.5 h 0.5 0.5 v 0.5 0.5 z m 26,0 H 915 v -0.5 -0.5 h 0.5 0.5 v 0.5 0.5 z m -836,-1 H 79 v -0.5 -0.5 h 0.5 0.5 v 0.5 0.5 z m 40,0 H 119 v -0.5 -0.5 h 0.5 0.5 v 0.5 0.5 z m 755,0 H 874 v -0.5 -0.5 h 0.5 0.5 v 0.5 0.5 z m -762,-1 H 112 v -0.5 -0.5 h 0.5 0.5 v 0.5 0.5 z m 760,0 H 872 v -0.5 -0.5 h 0.5 0.5 v 0.5 0.5 z m 70,0 H 942 v -0.5 -0.5 h 0.5 0.5 v 0.5 0.5 z m 7,-1 H 949 v -0.5 -0.5 h 0.5 0.5 v 0.5 0.5 z m -900,-1 H 49 v -0.5 -0.5 h 0.5 0.5 v 0.5 0.5 z m 47,-1 H 96 v -0.5 -0.5 h 0.5 0.5 v 0.5 0.5 z m 757,0 H 853 v -0.5 -0.5 h 0.5 0.5 v 0.5 0.5 z m 36,0 H 889 v -0.5 -0.5 h 0.5 0.5 v 0.5 0.5 z m 18,0 H 907 v -0.5 -0.5 h 0.5 0.5 v 0.5 0.5 z m -846,-1 H 61 v -0.5 -0.5 h 0.5 0.5 v 0.5 0.5 z m 826,-1 H 887 v -0.5 -0.5 h 0.5 0.5 v 0.5 0.5 z m 31,-1 H 918 v -0.5 -0.5 h 0.5 0.5 v 0.5 0.5 z m -12,-1 H 906 v -0.5 -0.5 h 0.5 0.5 v 0.5 0.5 z m -894,-1 H 12 v -0.5 -0.5 h 0.5 0.5 v 0.5 0.5 z m 83,0 H 95 v -0.5 -0.5 h 0.5 0.5 v 0.5 0.5 z m -11,-1 H 84 v -0.5 -0.5 h 0.5 0.5 v 0.5 0.5 z m 802,0 H 886 v -0.5 -0.5 h 0.5 0.5 v 0.5 0.5 z m 19,0 H 905 v -0.5 -0.5 h 0.5 0.5 v 0.5 0.5 z m -41,-1 H 864 v -0.5 -0.5 h 0.5 0.5 v 0.5 0.5 z M 7.5,414 H 7 V 413.5 413 H 7.5 8 v 0.5 0.5 z m 51,-1 H 58 v -0.5 -0.5 h 0.5 0.5 v 0.5 0.5 z m 810,-1 H 868 v -0.5 -0.5 h 0.5 0.5 v 0.5 0.5 z m -782,-2 H 86 v -0.5 -0.5 h 0.5 0.5 v 0.5 0.5 z m -30,-2 H 56 v -0.5 -0.5 h 0.5 0.5 v 0.5 0.5 z m 839.88197,0 h -0.5 l 0.61803,-1 0.61803,-1 h 0.5 0.5 l -0.61803,1 -0.61803,1 z M 874.5,407 H 874 v -0.5 -0.5 h 0.5 0.5 v 0.5 0.5 z m -787,-1 H 87 v -0.5 -0.5 h 0.5 0.5 v 0.5 0.5 z m 825,-1 H 912 v -0.5 -0.5 h 0.5 0.5 v 0.5 0.5 z m -823,-2 H 89 v -0.5 -0.5 h 0.5 0.5 v 0.5 0.5 z m -42,-1 H 47 v -0.5 -0.5 h 0.5 0.5 v 0.5 0.5 z m 5,-2 H 52 v -0.5 -0.5 h 0.5 0.5 v 0.5 0.5 z M 897.66667,393.66667 897,394.33333 V 393 391.66667 l 0.66667,0.66666 L 898.33333,393 Z M 889.5,392 H 889 v -0.5 -0.5 h 0.5 0.5 v 0.5 0.5 z"
         id="path3" />
      <path
         style="fill:#f0ebeb"
         d="m 449.5,786.63455 -6,0.13456 -2.5,-0.46575 -2.5,-0.46575 -48.5,-7.92054 -48.5,-7.92054 -2.25,-0.97683 -2.25,-0.97682 v -1.93965 -1.93966 l 0.60699,-1.58178 L 338.21398,761 h 2.95228 2.95227 l 21.58552,3.52189 21.58551,3.52189 0.29567,-0.29568 0.29568,-0.29568 1.91273,-11.25793 1.91272,-11.25793 -0.60318,-0.35308 -0.60318,-0.35308 -16.5,-2.66392 -16.5,-2.66391 -2.25,-0.92985 -2.25,-0.92984 v -2.98626 -2.98625 l 1.75,-0.91846 1.75,-0.91846 35.41372,5.80807 35.41372,5.80808 3.56842,-2.4248 3.56841,-2.4248 h 1.63102 1.63103 l 4.63684,4.95716 4.63684,4.95716 v 2.56759 2.56759 l -2.25986,0.8592 -2.25986,0.85919 -16.99014,-2.87074 -16.99014,-2.87074 -2.13085,-0.0132 -2.13084,-0.0132 -1.70619,11.07963 -1.70619,11.07964 0.63244,0.63243 0.63244,0.63244 15.67655,2.68326 15.67655,2.68326 4.20822,-2.89533 L 441.86035,770 h 1.92477 1.92477 l 5.21057,5.50941 5.21057,5.50941 -0.31552,2.74059 L 455.5,786.5 Z m 108.27994,-3.63829 -1.72007,0.004 -2.21799,-3 -2.218,-3 h -5.18949 -5.1895 l -1.20506,-1.45201 -1.20507,-1.45201 0.62348,-1.96441 0.62348,-1.96441 3.04053,-1.05993 3.04054,-1.05994 4.94105,-0.65545 4.94105,-0.65546 0.36761,-0.61819 0.36762,-0.61819 -2.21547,-11.4418 -2.21546,-11.4418 -0.99928,-0.3331 -0.99928,-0.33309 -25.92531,5.02651 -25.92532,5.02651 -1.75,-2.1124 -1.75,-2.1124 0.0153,-1.13921 0.0153,-1.13922 0.81533,-1.285 0.81533,-1.28499 26.41936,-5.10557 26.41935,-5.10557 0.32981,-0.27258 0.32982,-0.27259 -1.27632,-7.59578 -1.27631,-7.59578 -0.72986,-1.18093 -0.72985,-1.18092 -19.47358,3.78245 -19.47359,3.78245 -1.7372,-0.3426 -1.73721,-0.34259 -0.73278,-2 -0.73278,-2 0.75879,-2.03669 0.75879,-2.03668 20.36114,-3.88352 20.36113,-3.88351 0.33293,-0.24606 0.33292,-0.24606 -1.68829,-8.33374 -1.68829,-8.33374 -0.29684,-0.31888 -0.29685,-0.31887 -12.84779,3.535 -12.84779,3.535 -8.89516,2.10585 -8.89517,2.10585 -2.35483,-0.59103 L 493,697.9619 v -2.35851 -2.3585 l 1.25,-0.98835 1.25,-0.98834 17.5,-5.79289 17.5,-5.79288 13,-5.19995 13,-5.19995 9.7327,-4.30604 9.7327,-4.30604 7.09243,2.78262 7.09244,2.78262 1.10221,2.4191 1.10221,2.41909 -1.45594,1.45594 -1.45593,1.45593 -2.97141,0.13259 -2.97141,0.13258 -14,4.49927 -14,4.49927 -0.67996,0.62527 -0.67996,0.62527 1.80741,8.79412 1.80741,8.79412 0.37293,0.37293 0.37293,0.37293 11.17522,-2.16705 11.17522,-2.16705 3.62021,-4.75 3.6202,-4.75 1.2042,0.0316 1.20419,0.0316 7,3.71838 7,3.71839 0.30056,2.5856 0.30056,2.58559 -1.31255,1.08932 -1.31255,1.08931 -20.80397,3.97439 -20.80397,3.97438 -0.58043,0.58043 -0.58043,0.58043 1.64097,8.18152 1.64097,8.18152 0.31902,0.31902 0.31902,0.31902 15.4364,-2.97659 15.4364,-2.97659 0.20196,-0.004 L 594.90392,724 598,719.5 601.09608,715 h 1.93303 1.93302 l 6.55867,3.23423 6.55867,3.23422 0.58992,2.35041 0.58991,2.35041 -1.5604,1.5604 -1.5604,1.56041 -25.22468,4.84372 -25.22467,4.84372 -0.42639,0.42639 -0.42639,0.42639 2.58182,12.74457 2.58181,12.74458 -0.004,3.59028 -0.004,3.59027 -1.98712,3.25914 -1.98712,3.25914 -3.25914,1.98712 -3.25914,1.98712 z m 120.4189,-33.10268 -1.80116,0.96396 -4.43086,-1.98376 -4.43085,-1.98375 -1.76799,-1.6 L 664,743.69002 v -0.7167 -0.71671 l 5.15269,-7.8783 5.15269,-7.87831 -7.79827,-15 -7.79826,-15 -0.97827,-1.25168 -0.97826,-1.25169 -7.24927,4.00169 L 642.25378,702 h -1.60384 -1.60383 l -1.63301,-2.49228 -1.633,-2.49228 0.53674,-1.39874 0.53675,-1.39874 7.97641,-4.25001 7.97641,-4.25001 0.59914,-2.99569 0.59914,-2.99569 6.50738,0.52235 6.50738,0.52235 1.57543,1.30749 1.57543,1.30749 -0.42414,2.88983 -0.42413,2.88983 5.86957,11.16705 5.86957,11.16705 2.12484,4.15976 2.12483,4.15977 4.38344,0.65733 4.38344,0.65734 5.46113,-0.68232 L 705,719.76955 v -0.55603 -0.55604 l -1.45306,-1.60561 -1.45305,-1.60561 -15.04695,-28.424 L 672,658.59826 v -1.26394 -1.26395 l 1.93426,-1.03519 L 675.86852,654 h 3.95495 3.95496 l 2.14321,-1.75 2.1432,-1.75 -1.62576,-4.74807 -1.62577,-4.74808 -15.38937,8.06778 -15.38936,8.06777 -0.91988,-0.56851 -0.91988,-0.56852 -1.03312,2.96363 -1.03313,2.96363 -2.67818,0.67218 -2.67818,0.67218 -7.13611,-3.59761 -7.1361,-3.59761 -4.79954,-0.66036 -4.79955,-0.66036 -1.36144,-1.36143 -1.36143,-1.36144 0.50952,-1.94841 0.50952,-1.94842 1.65146,-0.68061 1.65146,-0.68062 9,-0.47516 9,-0.47516 4.62942,2.38954 4.62941,2.38955 0.87059,-1.2232 0.87058,-1.22319 8,-4.22194 8,-4.22194 0.80135,-0.70916 0.80134,-0.70915 -2.59199,-1.69834 -2.592,-1.69835 -6.43572,-1.58817 -6.43572,-1.58817 -0.5463,-1.72126 -0.54631,-1.72127 0.61506,-1.60281 0.61505,-1.60281 1.86658,-0.59243 1.86658,-0.59243 6.91418,-0.065 6.91417,-0.0651 3.59414,1.18617 3.59414,1.18617 2.57856,3.06445 2.57857,3.06446 3.70416,-1.68857 3.70416,-1.68857 1.86077,-1.38387 1.86076,-1.38387 -2.3475,-11.60344 -2.3475,-11.60344 1.48673,-0.94001 1.48674,-0.94001 6.55,-0.0153 6.55,-0.0153 1.2,1.2 1.2,1.2 v 2.26482 2.26481 L 704,609 l -2,1.07037 V 615.53518 621 h 0.37405 0.37404 l 4.60768,-2.57528 4.60768,-2.57528 1.02545,-3.80823 1.02545,-3.80823 1.40003,-1.16192 1.40003,-1.16192 6.6306,1.15467 6.63061,1.15467 1.46219,1.46219 1.46219,1.46219 -0.0153,1.17857 -0.0153,1.17857 -0.8771,1.38495 -0.87711,1.38495 -17.31722,9.22771 -17.31723,9.22772 0.30004,4.87909 0.30004,4.87909 0.42281,0.68412 0.42281,0.68411 7.90824,-4.17587 7.90824,-4.17587 0.5283,-2.62373 0.5283,-2.62372 1.33254,-0.51135 1.33254,-0.51134 5.31027,0.83944 5.31027,0.83944 1.4293,1.18621 1.42931,1.18622 -0.21085,3.1308 -0.21085,3.1308 11.80805,22.36733 11.80806,22.36733 -1.61146,3.37926 -1.61145,3.37925 -2.62508,1.19607 -2.62509,1.19607 -1.86103,-2.29828 -1.86104,-2.29829 -13.77149,7.21665 -13.77149,7.21665 -1.22899,0.9726 -1.22898,0.9726 0.88788,1.65903 0.88788,1.65902 -1.35436,3.22108 -1.35436,3.22108 7.19547,-3.61461 7.19546,-3.61461 22.36795,-11.92459 22.36795,-11.9246 2.13205,0.30431 2.13205,0.3043 -0.22796,3.81765 -0.22796,3.81765 -1.27204,2.57925 -1.27204,2.57924 -27,14.31551 -27,14.3155 -6.5,1.66059 -6.5,1.66059 -8.5,-0.56478 -8.5,-0.56478 -2.06693,-0.62718 -2.06694,-0.62718 -1.68306,6.05366 L 680,740.9698 v 3.97992 3.97991 z M 708.06114,698 h 0.7574 L 722.90927,690.409 737,682.81799 v -0.95865 -0.95866 L 735.47432,677.95034 733.94864,675 h -1.05833 -1.05832 l -13.666,7.16222 -13.66599,7.16223 -0.40647,0.32758 -0.40647,0.32758 1.80834,4.01019 1.80835,4.0102 z m -3.76204,-18.81728 5.2009,-2.90787 9.70785,-5.18288 9.70785,-5.18289 -1.11837,-2.45454 L 726.67897,661 h -0.9535 -0.9535 l -14.34704,7.62498 -14.34703,7.62498 1.51015,2.92031 1.51016,2.92032 z M 691.71698,668 h 0.34655 l 6.71824,-3.62991 6.71823,-3.6299 7.5,-4.02891 7.5,-4.0289 0.3846,-0.30913 0.3846,-0.30912 -1.25592,-3.03207 L 718.75736,646 h -0.51565 -0.51565 l -14.74693,7.70953 -14.74693,7.70954 1.56911,3.29046 L 691.37042,668 Z M 287.75,747.96843 l -4.25,-0.0316 -9.5,-4.93878 -9.5,-4.93878 -1.75,-2.14044 -1.75,-2.14044 v -2.70013 -2.70013 l 10.17923,-19.93908 10.17924,-19.93909 2.59693,-4.42539 2.59694,-4.42539 1.04776,-0.34925 1.04775,-0.34925 4.60632,3.51718 4.60632,3.51719 0.65237,2.05544 0.65238,2.05545 -1.20507,1.45201 -1.20506,1.45201 -1.62755,0.0186 -1.62756,0.0186 -9,17.5779 -9,17.57789 -0.26455,0.6972 -0.26456,0.69721 4.5233,2.19759 4.5233,2.19759 1.74126,-1.74829 1.74125,-1.74828 4.87599,-6.21557 4.87599,-6.21557 1.922,-0.61002 1.922,-0.61002 1.45201,1.20507 1.45201,1.20506 v 1.47363 1.47363 l -4.59976,8.43837 -4.59976,8.43838 0.61499,2.45032 0.61499,2.45032 -2.01523,2.01523 L 292,748 Z m 164.14719,-15.30618 -6.39719,0.16225 -14.44184,-2.42294 -14.44184,-2.42294 -2.29228,-1.50196 -2.29229,-1.50196 -0.67863,-2.70389 -0.67863,-2.70388 2.30178,-14.34444 2.30178,-14.34444 -0.88903,-0.83721 L 413.5,689.20364 408,688.5 l -5.5,-0.70364 1.25,1.30182 L 405,690.4 v 2.35103 2.35102 l -3.38458,1.41417 -3.38458,1.41417 -2.56958,4.38465 -2.56957,4.38465 -6.12391,5.66965 -6.12391,5.66966 -3.74332,1.9097 -3.74333,1.90971 -5.92861,1.99286 -5.92861,1.99286 -8.23141,1.12307 -8.23142,1.12306 -2.01858,-1.08031 L 341,725.92963 v -1.84237 -1.84237 l 1.49946,-1.24444 1.49946,-1.24444 6.75054,-1.38513 6.75054,-1.38513 7,-3.43073 7,-3.43072 5.18465,-5.08758 5.18466,-5.08757 3.06534,-6.1343 L 388,687.68056 v -1.24993 -1.24993 l -7.25,-1.16463 -7.25,-1.16464 -1.58702,-0.44138 -1.58702,-0.44137 -1.22175,4.07783 -1.22174,4.07783 -3.49685,3.87059 -3.49685,3.87059 -2.98503,0.65562 -2.98502,0.65562 -2.45936,-1.61143 L 350,695.95389 v -2.96636 -2.96636 l 4.7845,-5.2832 4.78449,-5.28321 1.21551,-3.22738 L 362,673 l 1.09156,-2.92814 1.09155,-2.92815 1.40845,-0.54047 1.40844,-0.54047 1.55025,0.59489 1.55026,0.59489 0.56387,2.81933 0.56386,2.81934 2.63588,0.53666 2.63588,0.53666 12.86982,2.13288 12.86981,2.13288 0.78416,-1.26879 0.78416,-1.26879 0.66805,-5.34697 0.66806,-5.34696 1.44104,-1.44103 1.44104,-1.44104 5.62808,1.93634 5.62809,1.93635 1.35884,1.12774 1.35885,1.12774 v 2.40231 2.4023 l -2.47207,0.93988 -2.47207,0.93988 -0.64803,2.58194 -0.64802,2.58194 0.37009,0.2908 0.3701,0.29081 17.60891,2.76126 17.60891,2.76127 3.22712,-1.66881 3.22711,-1.6688 6.16398,5.79419 6.16397,5.79418 0.93239,2.2457 0.93239,2.2457 -1.90933,2.10979 -1.90934,2.10979 -4.26585,-0.6397 -4.26586,-0.63971 -5.66999,4.0602 L 448.67442,710 H 447.03721 445.4 l -1.2,-1.2 -1.2,-1.2 v -1.4394 -1.4394 l 2.94126,-4.78016 2.94126,-4.78015 -7.19126,-1.12535 -7.19126,-1.12534 -2.10817,-0.43855 -2.10816,-0.43856 0.5011,2.62134 0.5011,2.62133 -2.2253,1.67855 -2.2253,1.67855 -1.37127,7.8966 -1.37128,7.8966 0.20364,0.17293 0.20364,0.17292 10.29005,1.61405 L 445.0801,720 h 1.40387 1.40388 l 2.68612,-5.98549 2.68613,-5.98549 1.32196,-1.09713 1.32196,-1.09713 1.98372,0.62961 1.98371,0.62961 0.34875,1.70301 0.34876,1.70301 -0.91011,5.40231 -0.91012,5.40232 1.74345,2.95141 1.74344,2.95141 -1.97062,2.64628 -1.97061,2.64627 z M 247.44762,726 h -4.40952 l -0.6978,-2.75 -0.69781,-2.75 12.42875,-24.3105 12.42876,-24.31051 1.24499,-1.05778 1.245,-1.05779 2.755,1.74774 2.75501,1.74775 2.75,2.55763 2.75,2.55764 v 2.21509 2.21508 l -2.75612,0.96079 -2.75612,0.96079 -9.8109,19.13262 -9.8109,19.13263 -1.50441,1.50441 L 251.85714,726 Z m -38.7293,-13.41632 -5.21832,0.5937 -1.25,-1.28869 L 201,710.6 v -1.3 -1.3 h -3.5 -3.5 l -2.1161,-2.1161 -2.11609,-2.11609 0.5183,-3.86422 0.51829,-3.86421 3.92782,-6.81271 3.92782,-6.81271 1.12778,-3.23516 1.12779,-3.23515 -0.54711,-1.42574 -0.54711,-1.42574 -3.41069,-2.01236 L 193,669.06745 v -1.09947 -1.09946 l 1.03518,-1.93426 L 195.07037,663 h 1.49806 1.49806 l 4.84935,2.45735 4.84935,2.45736 20.61844,-17.88559 20.61844,-17.88559 2.25342,-1.82176 2.25343,-1.82177 1.23689,-2.77806 1.23689,-2.77807 1.39477,-0.53523 1.39478,-0.53522 14.94558,7.48526 14.94559,7.48526 3.77851,-6.99565 3.77851,-6.99565 1.45451,-0.55815 1.4545,-0.55814 4.18527,3.00995 4.18528,3.00995 1.45163,2.52646 1.45164,2.52646 -1.32408,1.59541 L 307.75511,636 h -2.19234 -2.19235 l -1.66829,3.49846 -1.6683,3.49846 8.73308,4.34074 8.73309,4.34074 4.65122,-1.48409 4.65123,-1.4841 1.56127,0.59912 1.56127,0.59912 3.09558,6.1323 3.09558,6.1323 -0.30808,2.56261 -0.30807,2.56262 -1.80451,1.10086 -1.80451,1.10086 -19.38649,-9.91481 -19.38649,-9.91481 -8.10363,5.32019 -8.10362,5.32018 0.79462,0.66757 0.79463,0.66757 9.83798,4.25574 9.83798,4.25574 0.52609,-0.52609 0.52609,-0.52608 -2.12595,-3.43986 -2.12595,-3.43985 0.5892,-1.53543 0.5892,-1.53542 1.49512,-0.57374 1.49512,-0.57373 1.67756,0.91948 1.67756,0.91949 4.18406,4.32693 4.18407,4.32693 2.64326,5.29919 2.64327,5.29918 0.48457,5.20082 0.48456,5.20081 -2.04719,3.25 -2.0472,3.25 h -2.958 -2.95799 L 305.5567,693.77749 304,691.55499 v -4.15505 -4.15505 l -1.25,-0.96626 -1.25,-0.96627 -22.0126,-8.15618 L 257.4748,665 h -0.87376 -0.87377 l 2.63637,2.63636 2.63636,2.63637 v 1.16363 1.16364 l -1.2,1.2 -1.2,1.2 -1.55,0.008 -1.55,0.008 -3.5,6.60961 -3.5,6.60961 -5.73318,6.26691 -5.73318,6.26692 -5.08811,3.26503 -5.08811,3.26503 -6.46039,2.345 -6.46039,2.345 z m -2.12091,-8.1749 2.90259,-0.70592 5.33486,-2.33393 5.33486,-2.33393 5.13786,-4.09083 5.13786,-4.09082 3.89019,-5.17667 3.8902,-5.17668 3.49322,-6.9358 3.49323,-6.93581 -1.85614,-1.35898 -1.85614,-1.35898 0.0354,-5.9767 0.0354,-5.97669 -12.85372,12.77148 -12.85372,12.77148 -2.49199,4.19071 -2.49199,4.19071 -2.05934,7.27703 -2.05934,7.27703 -1.53297,2.33961 -1.53297,2.33961 z m 59.93148,-48.45958 1.02889,0.0508 6.3428,-6.39969 6.3428,-6.39969 -2.37169,-1.22693 -2.37169,-1.22693 -8.245,-4.45164 -8.245,-4.45163 -0.91462,2.32825 -0.91463,2.32826 -5.1089,4.98066 -5.10891,4.98066 9.26853,4.71854 9.26853,4.71855 z m -111.58914,2.82389 -1.53728,0.29605 -0.55187,-0.55188 -0.55188,-0.55187 -5.83818,-0.7327 -5.83819,-0.73269 -2.41385,-6 -2.41386,-6 -1.97872,-7.5 -1.97872,-7.5 -0.6686,-14.17371 -0.6686,-14.17372 -11.5,10.88044 -11.5,10.88044 -2.70295,0.0433 -2.70294,0.0433 -2.462303,-1.1219 -2.462299,-1.1219 -0.586134,-2.1281 -0.586134,-2.1281 12.59459,-12.24562 12.59458,-12.24562 -1.3432,-0.42408 -1.34321,-0.42408 -7.95938,-0.64097 -7.95938,-0.64098 -8.040621,-1.48353 -8.040619,-1.48353 -9.544022,-2.92091 -9.544023,-2.92091 -4.644861,-2.05465 -4.644862,-2.05464 -0.663894,-2.09175 -0.663895,-2.09174 1.601214,-1.60122 1.601215,-1.60121 6.251564,1.75306 6.251564,1.75305 11,2.38271 11,2.38272 10.92368,1.07695 10.92368,1.0769 h 2.44231 2.44231 l -3.36599,-3.83799 -3.36599,-3.83799 -1.72738,1.4725 -1.72737,1.47251 -3.71285,-0.60251 -3.71284,-0.60252 -1.90714,-1.90714 -1.907139,-1.90713 1.347359,-2.42635 L 102.5,565.39703 121.75541,547.19851 141.01082,529 l 0.74459,0.0153 0.74459,0.0153 1.24381,0.78987 1.24381,0.78988 0.90288,4.83288 0.90288,4.83288 7.09626,7.09625 7.09625,7.09626 2.46116,-2.48432 2.46115,-2.48433 -16.03924,-16.97483 -16.03925,-16.97484 -1.04949,-1.96098 -1.04948,-1.96099 2.64796,-2.27768 2.64796,-2.27768 1.31306,0.50387 1.31305,0.50386 16.38511,17.45964 L 172.42299,543 h 0.44188 0.44188 l 5.33216,-5.04293 5.33215,-5.04293 1.98309,1.06132 1.9831,1.06132 2.63577,4.4976 2.63577,4.49761 -0.62345,2.484 L 191.9619,549 h -3.32596 -3.32596 l -1.76993,1.95574 -1.76992,1.95574 11.82691,12.54426 L 205.42395,578 h 5.16558 5.16558 l 1.12276,1.35284 1.12276,1.35284 0.64417,7.6206 0.64418,7.62059 -1.26693,1.52657 L 216.75511,599 214.62756,598.995 212.5,598.98937 194.16314,579.49468 175.82627,560 l -0.66313,0.0222 -0.66314,0.0222 -2.49525,1.91706 -2.49525,1.91706 2.977,3.3107 2.977,3.31071 4.83461,5.09864 4.83461,5.09864 2.24446,-0.42905 2.24446,-0.42906 1.18787,1.4313 1.18787,1.4313 0.62752,4.57821 0.62751,4.5782 -0.64526,2.57091 -0.64525,2.57091 -2.73095,3.9e-4 L 186.5,597.0007 172.76541,610.00032 159.03083,623 h -1.95032 -1.95031 l -2.5043,-0.95213 -2.5043,-0.95213 -1.00516,-1.87817 -1.00516,-1.87816 1.43875,-2.77321 1.43876,-2.7732 -1.90302,-2.6465 -1.90302,-2.6465 -3.09137,-2.93709 L 141,600.62582 v 3.85916 3.85916 l 1.60269,8.55302 1.60269,8.55302 2.50707,7.02491 2.50706,7.02491 3.97387,7.69654 3.97386,7.69654 -0.3451,1.79197 -0.34511,1.79198 z m 3.62316,-53.89979 1.06291,0.1267 2.8599,-2.9851 2.85991,-2.9851 -6.35511,-6.7649 -6.35512,-6.7649 -1.3085,-1.45508 -1.3085,-1.45509 -3.50379,3.39601 -3.50379,3.396 7.24459,7.68239 7.24459,7.68238 z M 172.02515,592 h 0.86332 l 2.74727,-2.3631 2.74726,-2.3631 -7.4415,-8.13636 -7.4415,-8.13637 -0.56291,-5.3e-4 -0.56291,-5.4e-4 -2.65654,2.77283 -2.65654,2.77284 7.05037,7.72716 7.05036,7.72717 z m -34.40557,-15.11591 3.29971,-3.19819 -2.87143,-3.59295 -2.87142,-3.59295 -3.48122,-3.34245 -3.48121,-3.34245 -1.86819,0.99982 -1.8682,0.99983 -1.80925,1.99921 -1.80926,1.9992 6.73039,7.13457 6.73038,7.13456 z m 10.44333,-9.925 0.56291,0.0409 2.67992,-2.79723 2.67991,-2.79723 -6.64529,-7.28107 -6.6453,-7.28107 -3.00249,3.00249 -3.0025,3.0025 6.40497,7.03489 6.40496,7.0349 z M 829.36128,654 h -2.28345 l -5.78892,-4.6927 -5.78891,-4.69269 -13,-10.55328 -13,-10.55328 -11.46376,-9.39796 -11.46376,-9.39795 -4.53624,5.14429 -4.53624,5.1443 -1.59501,-3.7e-4 L 754.30998,615 752.65499,613.17126 751,611.34252 v -1.2781 -1.2781 l 4.03075,-5.06241 4.03075,-5.06241 -0.78075,-0.68518 -0.78075,-0.68519 -11.5,-9.33 -11.5,-9.33 -0.73469,-1.06557 -0.73468,-1.06556 -0.0153,-1.22675 L 733,574.04651 738.0898,570.02325 743.1796,566 h 2.30321 2.30321 l 0.60699,1.58179 0.60699,1.58178 v 2.38515 2.38515 l 8.74239,7.0356 8.74239,7.0356 1.00761,-0.34795 1.00761,-0.34795 V 581.90458 576.5 l 3.56441,-1.74369 3.56441,-1.7437 4.67165,-0.64032 4.67165,-0.64032 1.51394,1.25646 1.51394,1.25646 v 1.788 1.788 l -6.5,7.9567 -6.5,7.9567 0.044,0.88286 0.044,0.88285 6.69583,5.21783 6.69582,5.21782 0.81661,-2.20749 0.8166,-2.2075 0.58208,-9.55441 0.58208,-9.5544 -1.20362,-6.95593 -1.20361,-6.95592 -2.57147,-5.75 -2.57146,-5.75 h -0.7737 -0.7737 l -6.61856,8 -6.61856,8 H 767.47117 766 l -2,-2 -2,-2 v -0.93352 -0.93352 l 6.79174,-8.31648 6.79174,-8.31648 0.66966,-1.09204 0.66965,-1.09205 -5.44754,-6.40795 -5.44754,-6.40796 -0.0139,-1.6776 L 766,532.14481 771.88081,528.5724 777.76162,525 h 1.49675 1.49674 l 1.24695,1.50248 1.24695,1.50248 -0.60763,3.03812 -0.60762,3.03812 1.22367,1.9594 1.22366,1.9594 h 0.64682 0.64681 l 5.68433,-7.03538 5.68432,-7.03537 -0.56991,-2.71463 -0.56991,-2.71462 0.79992,-1.23815 0.79992,-1.23815 4.9483,-1.50103 4.94831,-1.50102 2.73095,-0.0108 2.73095,-0.0108 0.62689,2.49776 0.6269,2.49777 -0.59431,1.54877 -0.59432,1.54877 4.05835,5.13419 4.05834,5.1342 1.84464,3.61578 1.84464,3.61579 0.69477,3.70348 0.69478,3.70349 h 0.42389 0.4239 l 2.407,-1.57713 2.407,-1.57712 2.30781,0.32712 2.30782,0.32713 0.5,3.54701 0.5,3.54702 2.21491,2.95298 2.21491,2.95299 2.49913,-3 2.49912,-3 0.036,-3.72207 0.036,-3.72206 5.49666,-1.59792 5.49667,-1.59793 2.2163,0.31999 2.21631,0.31999 0.68538,3.37054 0.68539,3.37053 5.93474,6.12947 5.93473,6.12946 3.0299,4 3.02989,4 1.75527,3.42901 1.75526,3.42902 0.0703,4.65872 0.0703,4.65872 -1.31512,3.17499 -1.31512,3.17498 -2.30124,0.57757 -2.30124,0.57758 -1.90543,-0.60476 -1.90544,-0.60477 -4.27322,1.50768 -4.27321,1.50768 -0.76589,-0.47335 -0.76588,-0.47334 -0.44935,10.73013 -0.44935,10.73014 -1.2668,2.34966 -1.26681,2.34965 -2.32194,-0.44387 -2.32195,-0.44387 -1.02858,2.25748 -1.02857,2.25748 -2.04078,0.64772 -2.04078,0.64772 -1.68764,-0.94445 -1.68763,-0.94445 -3.08255,1.87973 -3.08254,1.87972 -2.14228,0.004 -2.14228,0.004 0.51244,10.25 0.51244,10.25 -2.79779,4.25 -2.79779,4.25 z m -1.49999,-16.02326 0.36129,0.0233 -0.68637,-3.75 -0.68636,-3.75 -4.32653,-9 -4.32652,-9 -2.56593,-3 -2.56594,-3 -2.77221,3.5 -2.77222,3.5 -2.20391,2.23912 -2.20392,2.23912 12.19367,9.98762 12.19366,9.98762 z m 10.74105,-22.21335 4.48236,-4.73661 -1.16027,-2.16798 -1.16027,-2.16798 -7.63413,-7.92641 -7.63414,-7.92641 -2.16425,2.92731 -2.16425,2.9273 4.0174,6.35379 4.01741,6.35378 2.45889,5.54991 2.45889,5.54991 z m -40.69774,-5.05123 1.5954,-2.36533 3.90118,-4.7109 3.90118,-4.7109 -2.84459,-2.96911 -2.84458,-2.96911 -0.64851,0.7566 -0.6485,0.75659 -1.77311,6.76468 -1.77311,6.76468 -1.58774,0.88854 -1.58774,0.88855 1.35736,1.63552 1.35735,1.63551 z m 56.7536,-6.03702 0.44001,-0.44002 -1.53472,-6.61757 -1.53471,-6.61758 -2.93671,-5.74999 -2.93671,-5.74998 -2.87959,-3.39401 -2.87959,-3.39401 -3.27171,4.13086 -3.2717,4.13086 7.84098,8.76315 7.84097,8.76315 2.34173,3.30758 2.34173,3.30757 z M 815.07983,589 h 0.8498 l 1.22346,-2.25 1.22346,-2.25 -0.24993,-3.07638 -0.24994,-3.07638 1.31166,-1.05815 1.31166,-1.05814 3.1825,-0.68011 3.18249,-0.6801 3.69873,-4.51381 3.69873,-4.51381 -4.30195,-4.38337 -4.30195,-4.38337 -2.28153,2.46181 L 821.0955,562 h -1.61349 -1.61349 l -1.92005,-1.02758 -1.92004,-1.02757 -4.15937,2.12195 -4.15937,2.12195 -2.35485,-1.07293 L 801,562.04288 v -1.92528 -1.92529 l 5.99627,-4.84615 5.99627,-4.84616 0.004,-1.93428 0.004,-1.93427 -1.99746,-4.1262 -1.99746,-4.1262 -2.85384,-2.73415 -2.85384,-2.73416 -5.6487,6.99128 -5.6487,6.99129 v 1.02344 1.02343 l 2.92129,5.77991 2.92128,5.77991 1.57872,6.14434 1.57871,6.14435 v 3.15097 3.15097 l 3.51096,-0.65866 3.51096,-0.65866 1.54656,1.28352 1.54655,1.28353 -0.25974,2.57982 -0.25974,2.57982 1.81724,2.75 1.81723,2.75 z m 48.23137,-3.66506 1.1888,-0.70745 3.75,-2.98111 3.75,-2.98111 v -1.6826 -1.68259 l -2.87597,-3.97016 -2.87597,-3.97017 -5.53069,-5.92987 -5.53069,-5.92988 -2.57615,2.40817 -2.57616,2.40816 -0.56284,1.77337 -0.56284,1.77337 3.50689,4.59428 3.5069,4.59428 3.09996,6.49538 3.09995,6.49538 z M 225.14408,649 h -0.76182 l -1.6461,-1.25 -1.6461,-1.25 -1.0672,-2.8734 -1.06719,-2.87339 0.64155,-3.41974 0.64155,-3.41975 -1.6923,-4.43121 -1.69229,-4.43121 0.32291,-2.27565 L 217.5,620.5 l 2.11209,-0.30148 2.1121,-0.30148 3.2808,2.76062 3.28081,2.76061 2.34733,5.04086 2.34733,5.04087 0.01,3.20295 0.01,3.20294 -1.11027,2.43679 -1.11027,2.43678 -2.43678,1.11027 L 225.90589,649 Z m 23.84004,-23 h -2.87071 l -1.55671,-2.22251 -1.5567,-2.2225 -0.022,-5.5275 -0.022,-5.52749 -1.99719,-4.40198 -1.99719,-4.40198 0.58654,-1.84802 L 240.13478,598 h 2.72966 2.72966 l 3.65413,3.75 3.65412,3.75 1.54882,3.71788 1.54883,3.71788 v 3.89726 3.89726 l -2.07258,2.63486 L 251.85484,626 Z M 46.617535,518.22228 l -2.299381,0.43956 -2.093705,-0.77451 -2.093705,-0.77452 -1.138489,-2.12728 -1.138489,-2.12729 1.004264,-2.88083 1.004264,-2.88083 4.034658,-5.34387 4.034657,-5.34386 2.027747,-4.58406 2.027748,-4.58406 2.339758,-8.81393 2.339757,-8.81393 1.666691,-1.05132 1.66669,-1.05132 1.75,1.10079 1.75,1.10079 0.287033,9.10684 0.287033,9.10683 -1.627709,6.28726 -1.627708,6.28726 -2.501542,5.29142 -2.501541,5.29142 -3.449325,3.34995 -3.449325,3.34994 z m 865.754905,-0.22983 -1.12755,0.008 -1.22076,-1.47093 -1.22077,-1.47093 3.57203,-10.66711 3.57202,-10.66711 -0.52531,-0.84997 -0.52532,-0.84997 -8.69839,-7.00158 -8.69839,-7.00157 -0.5,-0.009 -0.5,-0.009 -3.85892,10.74875 -3.85893,10.74875 -2.96376,7.75 -2.96376,7.75 h -1.99306 -1.99305 L 876.93426,513.96482 875,512.92963 v -1.39525 -1.39525 l 15.96743,-43.61235 15.96742,-43.61235 0.57319,-0.92743 0.57318,-0.92743 -2.22652,-5.17568 -2.22651,-5.17568 2.64209,-2.10411 2.6421,-2.1041 4.55721,-2.48643 4.55721,-2.48644 1.7366,1.0873 1.7366,1.08729 0.29533,2.43057 0.29533,2.43057 -10.05408,27.33768 -10.05408,27.33768 3.6847,4.13089 3.6847,4.13089 4.86515,5.37556 4.86516,5.37556 0.26392,-0.37556 0.26391,-0.37556 4.33686,-14 4.33686,-14 1.32198,-4.28885 1.32198,-4.28884 -6.78918,3.71286 -6.78918,3.71287 -1.67468,-0.64264 L 914,451.06277 v -2.43961 -2.43961 l 4.25,-4.3718 4.25,-4.3718 5.5,-4.36675 5.5,-4.36675 5,-2.34346 5,-2.34345 4.81574,-0.01 4.81574,-0.01 2.18426,1.1497 2.18426,1.14971 0.73469,1.10029 0.73468,1.1003 0.0153,3.22695 0.0153,3.22694 -2.25,1.46327 -2.25,1.46327 -5.23175,0.6862 -5.23174,0.68619 -1.37687,1.12359 -1.37686,1.12359 -8.09657,31.89925 -8.09656,31.89926 1.95517,2.4856 1.95518,2.48561 v 1.74269 1.7427 l -1.28429,1.06587 -1.2843,1.06587 -6.4657,1.04902 -6.46571,1.04902 z M 860.92244,510 h -1.67755 l -1.09929,-1.32457 -1.0993,-1.32457 -1.46738,-6.92543 -1.46738,-6.92543 -2.11452,-6.81012 -2.11452,-6.81013 -3.40082,-8.06365 -3.40082,-8.06366 -4.18583,-7.12622 L 834.7092,449.5 829.8546,442.87769 825,436.25537 v -1.18754 -1.18755 l 5.14506,-5.44014 L 835.29011,423 h 2.34647 2.34647 l 1.1737,1.8794 1.17371,1.87939 5.88838,-2.78476 5.88839,-2.78477 8.19639,-5.32511 8.19638,-5.32511 11.49656,-11.29536 11.49655,-11.29536 1.45978,0.28112 1.45978,0.28113 0.78479,3.77721 0.78479,3.77722 1.54609,2.9898 1.54608,2.9898 -0.78721,1.34125 -0.78721,1.34126 -4.76391,4.09584 -4.76391,4.09585 -6.41552,4.57802 -6.41551,4.57802 -9.82058,4.85376 -9.82057,4.85376 -7.25,2.15117 -7.25,2.15116 v 0.44638 0.44638 l 6.91883,14.26127 6.91883,14.26128 1.76796,5.76321 1.76795,5.76322 0.6638,-0.76322 0.6638,-0.76321 7.22127,-19.8418 7.22126,-19.84179 -1.61375,-4.03317 -1.61375,-4.03316 1.79068,-1.97868 1.79069,-1.97869 4.22062,-2.47345 4.22063,-2.47345 2.02827,0.64374 2.02826,0.64375 0.56817,2.26375 0.56816,2.26376 -10.22166,27.91959 -10.22166,27.9196 -1.0373,1.33516 -1.0373,1.33515 -2.80688,-0.41196 -2.80688,-0.41196 0.0197,0.0768 0.0197,0.0768 1.44544,8 1.44543,8 0.0349,4.55 0.0349,4.55 -1.2,1.2 -1.2,1.2 z M 78.602117,506.98469 76.5,506.96937 75.399704,506.23469 74.299408,505.5 73.149704,503.31574 72,501.13148 v -1.48914 -1.48915 l 3.5,-4.58525 3.5,-4.58525 v -1.39792 -1.39793 l -6.25,-13.03345 -6.25,-13.03345 -22,8.40072 -22,8.40073 -1.35,0.0393 -1.35,0.0393 -3.513205,-3.5132 -3.513204,-3.51321 1.445735,-2.17739 1.445736,-2.1774 22.417469,-8.4505 22.417469,-8.4505 0.34431,-0.28654 0.344311,-0.28654 L 54.243964,432.82236 47.299307,417.5 44.506594,417 l -2.792713,-0.5 -1.004195,-1.59522 -1.004195,-1.59523 0.631465,-2.40477 0.631464,-2.40478 4.602385,-4.75 4.602384,-4.75 0.663406,0.0153 0.663405,0.0153 1.173232,0.74625 1.173233,0.74626 7.721364,20.48843 7.721364,20.48843 0.212958,0.27422 0.212957,0.27422 26.25787,7.92454 26.257872,7.92454 0.50592,0.50592 0.50593,0.50593 -0.6994,6.53092 -0.69941,6.53092 -1.73402,2.14143 -1.73402,2.14143 -2.12511,-0.67449 -2.12511,-0.67448 -1.28692,-2.90734 -1.28691,-2.90734 -17.968488,-7.51929 -17.96849,-7.51929 -0.243701,0.24371 -0.243701,0.2437 4.828116,11.45745 4.828115,11.45745 1.201016,-4.47708 1.201016,-4.47707 0.764342,-1.5 0.764342,-1.5 1.690856,-0.33258 1.690856,-0.33257 1.45196,1.20502 L 95,467.24489 v 6.54564 6.54564 l -1.061778,6.09718 -1.061778,6.09719 -2.688222,4.95293 L 87.5,502.4364 84.102117,504.7182 80.704234,507 Z m -33.474562,-59 L 43.5,447.96937 42.414537,447.23469 41.329074,446.5 40.414537,444.86648 39.5,443.23296 28.879381,437.75153 18.258762,432.27009 10.879381,426.78291 3.5,421.29574 1.662347,419.22227 -0.17530606,417.14881 0.16234697,415.43159 0.5,413.71437 l 1.7098024,-1.07672 1.7098024,-1.07671 3.7901976,2.27289 3.7901976,2.27289 9.949294,4.9652 9.949294,4.96519 9.800706,3.02439 L 51,432.08589 v 2.01423 2.01424 l -1.14433,4.69282 -1.144329,4.69282 -0.978115,1.25 -0.978115,1.25 z M 121.03254,444 h -1.72256 L 117.65499,442.17126 116,440.34252 115.995,439.42126 115.99,438.5 l -11.23457,-4 -11.234565,-4 -0.706348,-0.31543 -0.706348,-0.31543 -2.066567,4.0508 -2.066568,4.05081 -2.565975,1.68129 -2.565975,1.68129 H 79.779616 76.716908 L 75.358454,439.47554 74,437.61774 v -2.58103 -2.58102 l 2.860862,-3.47785 2.860863,-3.47784 2.527614,-5 2.527614,-5 1.595817,-5.37861 1.595817,-5.37861 1.138151,-1.37139 L 90.244889,402 h 1.842372 1.842371 l 1.132737,2.11654 1.132737,2.11654 -0.347553,7.581 -0.347553,7.581 6,1.23957 6,1.23957 9.27357,1.23882 9.27356,1.23883 1.02643,1.23677 1.02644,1.23677 -1.6394,6.3373 -1.6394,6.33729 -1.03305,1.25 -1.03304,1.25 z"
         id="path2" />
    </g>
  </g>
</svg>
